<svg width="141" height="41" viewBox="0 0 141 41" fill="none" xmlns="http://www.w3.org/2000/svg">
<g clip-path="url(#clip0_11184_1388)">
<path d="M5.09062 18.1376C5.40653 18.6631 5.86393 19.0894 6.41064 19.3677C6.9702 19.6638 7.5947 19.8162 8.22789 19.8112C8.76656 19.8134 9.30212 19.7295 9.81429 19.5628C10.3065 19.3963 10.7728 19.1614 11.1994 18.865C11.6197 18.5736 11.9778 18.2017 12.2531 17.771V22.1176C11.7201 22.5215 11.1185 22.826 10.4773 23.0165C9.63206 23.2647 8.75344 23.3804 7.87273 23.3595C6.47621 23.3825 5.09366 23.0787 3.8357 22.4724C2.68612 21.9209 1.71264 21.0609 1.02399 19.9886C0.327715 18.8724 -0.0281242 17.5779 -6.61436e-05 16.263C-0.0312516 14.9421 0.324695 13.641 1.02399 12.5196C1.71679 11.4552 2.68959 10.602 3.8357 10.0535C5.09366 9.44719 6.47621 9.1434 7.87273 9.16646C8.75344 9.14555 9.63206 9.26126 10.4773 9.50946C11.1092 9.69567 11.7083 9.97897 12.2531 10.3492V14.7254C11.974 14.2899 11.6071 13.9172 11.1758 13.6313C10.7316 13.3365 10.2471 13.1075 9.73734 12.9513C9.24903 12.7967 8.74011 12.717 8.22789 12.7147C7.59122 12.7115 6.96476 12.8746 6.41064 13.1878C5.86409 13.4852 5.40804 13.9245 5.09062 14.4593C4.77217 15.0066 4.6085 15.63 4.61706 16.263C4.59817 16.9196 4.76211 17.5686 5.09062 18.1376Z" fill="black"/>
<path d="M19.8298 0V23.0636H15.3311V0H19.8298Z" fill="black"/>
<path d="M23.6777 2.61412C24.1956 2.18624 24.8466 1.95215 25.5187 1.95215C26.1907 1.95215 26.8417 2.18624 27.3596 2.61412C27.6066 2.82876 27.8027 3.09558 27.9337 3.39526C28.0648 3.69494 28.1275 4.01998 28.1173 4.34684C28.1307 4.68021 28.0697 5.01238 27.9387 5.31925C27.8076 5.62612 27.6098 5.89999 27.3596 6.12097C26.8468 6.55986 26.1939 6.8011 25.5187 6.8011C24.8435 6.8011 24.1905 6.55986 23.6777 6.12097C23.4237 5.90248 23.2225 5.62937 23.0893 5.3221C22.956 5.01484 22.8941 4.68142 22.9082 4.34684C22.8978 4.01881 22.9616 3.69264 23.0948 3.39264C23.2281 3.09264 23.4273 2.82653 23.6777 2.61412ZM27.6733 9.46223V23.0638H23.3522V9.46223H27.6733Z" fill="black"/>
<path d="M35.4276 18.1376C35.7412 18.6629 36.1966 19.0892 36.7417 19.3677C37.3037 19.6631 37.9299 19.8155 38.5649 19.8112C39.1016 19.8134 39.6352 19.7295 40.1454 19.5628C40.64 19.3976 41.1084 19.1626 41.5364 18.865C41.9673 18.5766 42.3357 18.2046 42.6197 17.771V22.1176C42.0867 22.5215 41.4851 22.826 40.8439 23.0165C39.9987 23.2647 39.12 23.3804 38.2393 23.3595C36.831 23.387 35.4359 23.0831 34.1668 22.4724C33.0248 21.9166 32.0581 21.0573 31.3728 19.9886C30.6783 18.8719 30.3245 17.5773 30.3547 16.263C30.3214 14.9427 30.6753 13.6415 31.3728 12.5196C32.0624 11.4591 33.0284 10.6065 34.1668 10.0535C35.4269 9.44733 36.8113 9.14357 38.2097 9.16646C39.0904 9.14555 39.9691 9.26126 40.8143 9.50946C41.4462 9.69567 42.0453 9.97897 42.5901 10.3492V14.7254C42.3089 14.2896 41.94 13.917 41.5068 13.6313C41.0642 13.3377 40.5818 13.1087 40.0743 12.9513C39.586 12.7967 39.0771 12.717 38.5649 12.7147C37.9264 12.7121 37.2982 12.8751 36.7417 13.1878C36.1931 13.4898 35.7376 13.9359 35.4246 14.478C35.1116 15.02 34.9529 15.6373 34.9659 16.263C34.9434 16.9185 35.1032 17.5674 35.4276 18.1376Z" fill="black"/>
<path d="M49.9302 0V23.0636H45.6387V0H49.9302ZM60.2004 9.462L54.3994 15.0801L60.7923 23.0636H55.5536L49.0423 15.0801L54.8729 9.462H60.2004Z" fill="black"/>
<path d="M67.0964 23.0636H62.5977V0H67.0964V23.0636ZM71.0328 12.9215C70.8519 12.6924 70.6159 12.5126 70.3469 12.3989C70.0778 12.2852 69.7844 12.2412 69.4938 12.271C69.0584 12.2593 68.6283 12.3678 68.2507 12.5845C67.9004 12.7856 67.6133 13.0805 67.422 13.436C67.2112 13.8534 67.1093 14.3172 67.126 14.7844H66.3565C66.3397 13.7735 66.5207 12.7691 66.8892 11.8275C67.2143 10.9869 67.7729 10.2564 68.4993 9.7222C69.3159 9.17374 70.2865 8.90024 71.2696 8.94159C72.2077 8.89704 73.141 9.10106 73.9748 9.53296C74.661 9.93739 75.1892 10.563 75.4724 11.3071C75.8113 12.2141 75.9721 13.1779 75.9459 14.1457V23.0636H71.4472V14.7844C71.4968 14.1361 71.3526 13.4878 71.0328 12.9215Z" fill="black"/>
<path d="M79.4675 12.5066C80.157 11.4423 81.131 10.5921 82.2792 10.0523C83.5229 9.44731 84.8917 9.14342 86.2748 9.16529C87.6524 9.14219 89.0157 9.44622 90.2527 10.0523C91.3905 10.6097 92.353 11.4689 93.0348 12.5361C93.7334 13.6622 94.0892 14.9669 94.0588 16.2914C94.0869 17.6062 93.7311 18.9008 93.0348 20.017C92.353 21.0842 91.3905 21.9435 90.2527 22.5008C89.0157 23.1069 87.6524 23.4109 86.2748 23.3878C84.8893 23.4005 83.5204 23.0865 82.2792 22.4712C81.1127 21.9152 80.1334 21.032 79.4607 19.9294C78.788 18.8268 78.451 17.5524 78.4908 16.2618C78.4486 14.9423 78.7877 13.6386 79.4675 12.5066ZM83.4927 18.0832C83.7692 18.5701 84.1668 18.9775 84.647 19.266C85.0085 19.4754 85.4081 19.6109 85.8225 19.6648C86.2369 19.7186 86.6579 19.6897 87.061 19.5797C87.4641 19.4696 87.8414 19.2807 88.1708 19.0238C88.5002 18.7669 88.7753 18.4472 88.98 18.0832C89.2791 17.5236 89.428 16.896 89.4121 16.2618C89.4273 15.6238 89.2786 14.9926 88.98 14.4285C88.7137 13.9341 88.3137 13.5243 87.8257 13.2458C87.34 12.9744 86.7928 12.8319 86.2364 12.8319C85.6799 12.8319 85.1327 12.9744 84.647 13.2458C84.1642 13.5309 83.7658 13.9391 83.4927 14.4285C83.1849 14.9896 83.0317 15.6222 83.0488 16.2618C83.0306 16.8977 83.184 17.5268 83.4927 18.0832Z" fill="black"/>
<path d="M101.666 19.5912C101.843 19.8246 102.078 20.0083 102.348 20.1243C102.618 20.2404 102.913 20.2849 103.205 20.2535C103.642 20.2661 104.074 20.1641 104.46 19.9578C104.808 19.7554 105.091 19.458 105.276 19.1003C105.484 18.6776 105.585 18.2108 105.572 17.7402V9.46094H110.042V23.0625H105.572V21.0223C105.183 21.7247 104.623 22.3184 103.945 22.7491C103.184 23.198 102.311 23.4196 101.429 23.3878C99.7299 23.3878 98.4691 22.9324 97.7114 22.0099C96.871 20.9286 96.4505 19.5801 96.5275 18.2133V9.46094H101.222V17.7402C101.186 18.3872 101.34 19.0306 101.666 19.5912Z" fill="black"/>
<path d="M116.02 19.4678C116.491 19.7533 116.994 19.9835 117.518 20.1538C117.882 20.2684 118.261 20.3321 118.643 20.3431C119.003 20.3706 119.361 20.2654 119.649 20.0474C119.755 19.95 119.839 19.831 119.895 19.6984C119.951 19.5657 119.978 19.4226 119.974 19.2786C119.983 19.0038 119.888 18.7359 119.708 18.5276C119.452 18.2684 119.143 18.0668 118.802 17.9362C118.241 17.6913 117.663 17.4839 117.074 17.3152C116.435 17.0859 115.815 16.8051 115.221 16.4755C114.647 16.1544 114.156 15.7026 113.789 15.1567C113.388 14.5211 113.192 13.7782 113.226 13.0278C113.202 12.2731 113.436 11.5326 113.889 10.9284C114.36 10.337 114.984 9.88679 115.695 9.62739C116.533 9.31769 117.423 9.16726 118.317 9.18385C119.059 9.17835 119.799 9.26778 120.519 9.44997C121.182 9.62139 121.827 9.85914 122.443 10.1596C123.042 10.4514 123.612 10.7978 124.148 11.1945L122.549 14.0923C121.97 13.5565 121.311 13.1137 120.596 12.7794C119.972 12.4591 119.285 12.2814 118.583 12.259C118.254 12.2344 117.926 12.3174 117.648 12.4955C117.554 12.5635 117.478 12.6523 117.424 12.7549C117.371 12.8576 117.342 12.9712 117.34 13.0869C117.338 13.2305 117.37 13.3725 117.434 13.5011C117.498 13.6297 117.591 13.7412 117.707 13.8261C118.033 14.0618 118.392 14.2472 118.773 14.3761L120.478 15.0089C121.156 15.2498 121.813 15.5465 122.443 15.8959C123.016 16.2057 123.511 16.6402 123.893 17.1674C124.286 17.773 124.479 18.4867 124.444 19.2076C124.493 19.8239 124.4 20.4432 124.171 21.0176C123.942 21.592 123.584 22.1058 123.124 22.5193C122.024 23.3344 120.672 23.7364 119.306 23.6548C118.391 23.6616 117.479 23.5483 116.594 23.3177C115.789 23.0991 115.011 22.7916 114.274 22.4011C113.58 22.0241 112.917 21.593 112.291 21.1119L114.156 18.155C114.738 18.6458 115.362 19.0851 116.02 19.4678Z" fill="black"/>
<path d="M129.587 22.4727C128.474 21.9267 127.544 21.0675 126.912 20.0008C126.26 18.8587 125.932 17.5602 125.965 16.2456C125.928 14.9249 126.245 13.6184 126.882 12.4608C127.503 11.4117 128.425 10.5731 129.528 10.0539C130.81 9.45365 132.215 9.16006 133.63 9.19639C135.008 9.15502 136.376 9.43442 137.626 10.0125C138.679 10.526 139.547 11.3523 140.112 12.378C140.712 13.5261 141.008 14.8089 140.97 16.1036V16.7364C140.973 16.9117 140.953 17.0866 140.911 17.2568H128.481V14.7257H136.886L135.821 16.0859C135.926 15.926 136.009 15.753 136.069 15.5714C136.131 15.4045 136.167 15.2289 136.176 15.051C136.187 14.5203 136.076 13.9941 135.85 13.5134C135.646 13.0981 135.328 12.7494 134.933 12.5081C134.51 12.2646 134.029 12.1418 133.542 12.1533C132.948 12.1313 132.361 12.2857 131.855 12.5968C131.37 12.9204 131.006 13.3942 130.819 13.9451C130.571 14.6724 130.447 15.436 130.452 16.2042C130.438 16.9307 130.562 17.6531 130.819 18.3331C131.023 18.8835 131.396 19.3554 131.884 19.6815C132.41 19.9986 133.017 20.1568 133.63 20.1368C134.331 20.1562 135.026 20.0039 135.655 19.6933C136.225 19.3902 136.694 18.9278 137.004 18.3627L141 19.3385C140.359 20.6083 139.353 21.6583 138.111 22.3545C136.785 22.9924 135.336 23.335 133.864 23.3585C132.393 23.382 130.933 23.0858 129.587 22.4905V22.4727Z" fill="black"/>
<path d="M60.774 36.6295H54.4698L49.9355 40.9998V26.2568L60.774 36.6295Z" fill="black"/>
<path d="M45.603 28.3389H0V30.7517H45.603V28.3389Z" fill="#FF9900"/>
<path d="M141 28.3389H62.5801V30.7517H141V28.3389Z" fill="#FF9900"/>
</g>
<defs>
<clipPath id="clip0_11184_1388">
<rect width="141" height="41" fill="white"/>
</clipPath>
</defs>
</svg>
