<svg width="263" height="70" viewBox="0 0 263 70" fill="none" xmlns="http://www.w3.org/2000/svg">
<path d="M56.7969 37.8984C53.5286 37.0911 50.4102 36.6875 47.4414 36.6875C42.6628 36.6875 39.6289 37.9766 38.3398 40.5547C37.9492 41.3359 37.7539 42.2279 37.7539 43.2305C37.7539 45.418 38.3333 47.0846 39.4922 48.2305C40.651 49.3763 42.2266 49.9492 44.2188 49.9492C45.5078 49.9492 46.582 49.6888 47.4414 49.168C48.3138 48.6471 48.9518 47.9961 49.3555 47.2148H44.707L44.9609 41.5703C45.0651 41.5833 47.4284 41.6159 52.0508 41.668C56.6862 41.707 59.1536 41.7591 59.4531 41.8242V57L55.7812 57.1953L55.1953 53.2109C54.0625 54.6042 52.168 55.7305 49.5117 56.5898C46.8555 57.4492 44.388 57.8789 42.1094 57.8789C39.8307 57.8789 37.7409 57.7031 35.8398 57.3516C33.9388 57 32.168 56.4466 30.5273 55.6914C28.8867 54.9232 27.4674 53.9922 26.2695 52.8984C25.0846 51.7917 24.1536 50.4375 23.4766 48.8359C22.7995 47.2344 22.4609 45.3854 22.4609 43.2891C22.4609 41.1927 22.8906 39.2526 23.75 37.4688C24.6094 35.6849 25.7682 34.2135 27.2266 33.0547C31.3802 29.7344 37.5977 28.0742 45.8789 28.0742C47.2721 28.0742 49.1146 28.1979 51.4062 28.4453C53.7109 28.6797 55.5078 28.9596 56.7969 29.2852V37.8984ZM78.1859 52.3906C79.7354 52.3906 80.9073 51.8763 81.7016 50.8477C82.5089 49.819 82.9125 48.5299 82.9125 46.9805C82.9125 45.431 82.4828 44.2005 81.6234 43.2891C80.7771 42.3646 79.6052 41.9023 78.1078 41.9023C76.6104 41.9023 75.4776 42.4362 74.7094 43.5039C73.9542 44.5586 73.5766 45.8021 73.5766 47.2344C73.5766 50.6719 75.113 52.3906 78.1859 52.3906ZM62.7562 47.3906C62.7562 39.8646 68.238 36.1016 79.2016 36.1016C83.2901 36.1016 86.6755 37.026 89.3578 38.875C90.6599 39.7604 91.669 40.8737 92.3852 42.2148C93.1143 43.556 93.4789 44.9753 93.4789 46.4727C93.4789 50.3919 92.1573 53.25 89.5141 55.0469C86.8839 56.8307 83.0036 57.7227 77.8734 57.7227C67.7953 57.7227 62.7562 54.2786 62.7562 47.3906ZM110.981 52.3906C112.531 52.3906 113.703 51.8763 114.497 50.8477C115.304 49.819 115.708 48.5299 115.708 46.9805C115.708 45.431 115.278 44.2005 114.419 43.2891C113.572 42.3646 112.401 41.9023 110.903 41.9023C109.406 41.9023 108.273 42.4362 107.505 43.5039C106.749 44.5586 106.372 45.8021 106.372 47.2344C106.372 50.6719 107.908 52.3906 110.981 52.3906ZM95.5516 47.3906C95.5516 39.8646 101.033 36.1016 111.997 36.1016C116.085 36.1016 119.471 37.026 122.153 38.875C123.455 39.7604 124.464 40.8737 125.18 42.2148C125.91 43.556 126.274 44.9753 126.274 46.4727C126.274 50.3919 124.953 53.25 122.309 55.0469C119.679 56.8307 115.799 57.7227 110.669 57.7227C100.591 57.7227 95.5516 54.2786 95.5516 47.3906ZM129.87 50.4766C133.972 51.3359 137.344 51.7656 139.988 51.7656C142.631 51.7656 143.952 51.5703 143.952 51.1797C143.952 50.776 143.659 50.4831 143.073 50.3008C142.501 50.1055 140.905 49.7865 138.288 49.3438C135.684 48.901 133.848 48.4714 132.78 48.0547C129.968 46.987 128.562 45.3789 128.562 43.2305C128.575 41.3424 129.297 39.8776 130.73 38.8359C133.217 37.013 137.253 36.1016 142.839 36.1016C146.185 36.1016 149.486 36.5117 152.741 37.332L151.804 42.8008C150.918 42.5794 149.408 42.3581 147.273 42.1367C145.15 41.9154 143.275 41.8047 141.648 41.8047C140.033 41.8047 139.226 42.026 139.226 42.4688C139.226 42.7552 139.389 42.957 139.714 43.0742C140.053 43.1914 141.172 43.3737 143.073 43.6211C144.974 43.8685 146.335 44.0768 147.155 44.2461C150.241 44.8711 152.312 45.9258 153.366 47.4102C154.043 48.3477 154.382 49.3763 154.382 50.4961C154.382 51.6029 154.265 52.4883 154.03 53.1523C153.497 54.6497 152.195 55.7891 150.124 56.5703C148.067 57.3385 144.935 57.7227 140.73 57.7227C138.529 57.7227 136.244 57.5729 133.874 57.2734C131.504 56.987 129.74 56.5247 128.581 55.8867L129.87 50.4766ZM174.775 44.7734C174.762 43.5495 174.476 42.6836 173.916 42.1758C173.369 41.668 172.561 41.4141 171.494 41.4141C170.439 41.4141 169.586 41.7331 168.935 42.3711C168.284 42.9961 167.88 43.7839 167.724 44.7344L174.775 44.7734ZM182.431 55.3984C181.624 56.0104 180.185 56.5443 178.115 57C176.045 57.4688 174.033 57.7031 172.08 57.7031C170.14 57.7031 168.492 57.612 167.138 57.4297C165.784 57.2474 164.443 56.9219 163.115 56.4531C161.787 55.9714 160.647 55.3659 159.697 54.6367C158.759 53.8945 157.998 52.9375 157.412 51.7656C156.826 50.5807 156.533 49.168 156.533 47.5273C156.533 45.8737 156.832 44.3568 157.431 42.9766C158.03 41.5964 158.805 40.4831 159.755 39.6367C162.399 37.2799 166.227 36.1016 171.24 36.1016C173.623 36.1016 175.888 36.5573 178.037 37.4688C180.185 38.4062 181.715 39.8125 182.627 41.6875C183.147 42.7422 183.408 43.9076 183.408 45.1836L183.173 48.4062L167.334 48.3281C167.646 49.513 168.401 50.444 169.599 51.1211C170.81 51.7982 172.457 52.1367 174.541 52.1367C176.624 52.1367 179.026 51.5703 181.748 50.4375H182.802L182.431 55.3984ZM194.758 50.2031V55.9062L194.68 57.4102H186.945C186.919 56.9154 186.906 56.0104 186.906 54.6953V50.1445H193.527L194.758 50.2031ZM210.561 28.9141L210.522 30.8086C210.522 31.3685 210.463 32.7161 210.346 34.8516C210.242 36.987 210.183 38.2305 210.17 38.582C211.251 37.8398 212.514 37.2409 213.959 36.7852C215.418 36.3294 216.85 36.1016 218.256 36.1016C222.54 36.1016 225.906 37.4167 228.354 40.0469C229.982 41.8047 230.795 44.0182 230.795 46.6875C230.795 48.1719 230.424 49.5977 229.682 50.9648C228.953 52.332 227.976 53.5104 226.752 54.5C225.541 55.4766 224.103 56.2578 222.436 56.8438C220.782 57.4297 218.953 57.7227 216.948 57.7227C214.942 57.7227 212.97 57.3385 211.03 56.5703C209.09 55.8021 207.54 54.7083 206.381 53.2891V53.2109C206.329 53.3672 205.978 53.9531 205.327 54.9688C204.676 55.9844 204.304 56.5117 204.213 56.5508C204.135 56.5898 203.419 56.7201 202.065 56.9414C200.711 57.1628 199.851 57.2734 199.487 57.2734C199.122 57.2734 198.784 57.1432 198.471 56.8828L199.506 32.2148V29.5977C203.998 28.9987 206.798 28.6992 207.905 28.6992C209.024 28.6992 209.91 28.7708 210.561 28.9141ZM214.35 52.0391C215.821 52.0391 216.987 51.5443 217.846 50.5547C218.705 49.5651 219.135 48.4128 219.135 47.0977C219.135 45.7695 218.718 44.6367 217.885 43.6992C217.065 42.7487 215.913 42.2734 214.428 42.2734C213.439 42.2734 212.579 42.5208 211.85 43.0156C210.47 43.9531 209.78 45.3398 209.78 47.1758C209.78 48.4909 210.177 49.6302 210.971 50.5938C211.765 51.5573 212.892 52.0391 214.35 52.0391ZM241.696 59.8125L240.055 56.8633C238.962 54.8971 237.106 51.3034 234.489 46.082C231.872 40.8607 230.407 37.9896 230.095 37.4688L241.501 36.9805L246.989 49.6953C247.236 49.0312 247.92 46.9674 249.04 43.5039C250.173 40.0404 250.915 37.8724 251.266 37C251.735 36.9609 252.171 36.9414 252.575 36.9414C252.575 36.9414 255.511 37.0521 261.384 37.2734C260.016 40.5547 258.07 45.0859 255.544 50.8672C253.005 56.6745 251.546 59.9427 251.169 60.6719C250.192 62.5729 249.066 64.2005 247.79 65.5547C245.029 68.4974 241.234 69.9688 236.403 69.9688L233.024 64.5C233.805 64.5 234.964 64.2005 236.501 63.6016C239.457 62.4297 241.188 61.1667 241.696 59.8125Z" fill="#FF9900"/>
<path d="M56.7969 37.8984L56.653 38.4809C56.8321 38.5252 57.0216 38.4846 57.1668 38.3708C57.312 38.2571 57.3969 38.0829 57.3969 37.8984H56.7969ZM39.4922 48.2305L39.914 47.8038L39.4922 48.2305ZM47.4414 49.168L47.1338 48.6528L47.1304 48.6549L47.4414 49.168ZM49.3555 47.2148L49.8885 47.4903C49.9846 47.3043 49.9768 47.0816 49.8679 46.9028C49.7591 46.724 49.5648 46.6148 49.3555 46.6148V47.2148ZM44.707 47.2148L44.1076 47.1879C44.1003 47.3515 44.1601 47.5111 44.2733 47.6295C44.3865 47.7479 44.5432 47.8148 44.707 47.8148V47.2148ZM44.9609 41.5703L45.0354 40.9749C44.8692 40.9542 44.702 41.0038 44.5741 41.1117C44.4461 41.2196 44.3691 41.3761 44.3615 41.5434L44.9609 41.5703ZM52.0508 41.668L52.044 42.2679L52.0457 42.2679L52.0508 41.668ZM59.4531 41.8242H60.0531C60.0531 41.542 59.8564 41.2979 59.5806 41.2379L59.4531 41.8242ZM59.4531 57L59.485 57.5992C59.8035 57.5822 60.0531 57.319 60.0531 57H59.4531ZM55.7812 57.1953L55.1876 57.2826C55.2327 57.5891 55.5037 57.8109 55.8131 57.7945L55.7812 57.1953ZM55.1953 53.2109L55.7889 53.1236C55.7543 52.8882 55.5838 52.6955 55.3544 52.6324C55.1249 52.5693 54.8799 52.6478 54.7298 52.8324L55.1953 53.2109ZM30.5273 55.6914L30.2729 56.2348L30.2765 56.2364L30.5273 55.6914ZM26.2695 52.8984L25.8599 53.3369L25.865 53.3415L26.2695 52.8984ZM23.75 37.4688L23.2095 37.2083L23.75 37.4688ZM27.2266 33.0547L27.5998 33.5244L27.6012 33.5234L27.2266 33.0547ZM51.4062 28.4453L51.3419 29.0419L51.3455 29.0422L51.4062 28.4453ZM56.7969 29.2852H57.3969C57.3969 29.0104 57.2102 28.7707 56.9438 28.7034L56.7969 29.2852ZM56.9408 37.3159C53.6316 36.4985 50.4646 36.0875 47.4414 36.0875V37.2875C50.3557 37.2875 53.4257 37.6837 56.653 38.4809L56.9408 37.3159ZM47.4414 36.0875C42.5952 36.0875 39.2497 37.3934 37.8032 40.2864L38.8765 40.823C40.0082 38.5597 42.7303 37.2875 47.4414 37.2875V36.0875ZM37.8032 40.2864C37.3651 41.1625 37.1539 42.1485 37.1539 43.2305H38.3539C38.3539 42.3072 38.5333 41.5094 38.8765 40.823L37.8032 40.2864ZM37.1539 43.2305C37.1539 45.5216 37.7627 47.3642 39.0703 48.6571L39.914 47.8038C38.904 46.8051 38.3539 45.3143 38.3539 43.2305H37.1539ZM39.0703 48.6571C40.3655 49.9378 42.1059 50.5492 44.2188 50.5492V49.3492C42.3472 49.3492 40.9366 48.8148 39.914 47.8038L39.0703 48.6571ZM44.2188 50.5492C45.587 50.5492 46.7762 50.2727 47.7524 49.6811L47.1304 48.6549C46.3879 49.1049 45.4287 49.3492 44.2188 49.3492V50.5492ZM47.749 49.6831C48.7022 49.1141 49.426 48.3855 49.8885 47.4903L48.8224 46.9394C48.4777 47.6067 47.9254 48.1802 47.1338 48.6528L47.749 49.6831ZM49.3555 46.6148H44.707V47.8148H49.3555V46.6148ZM45.3064 47.2418L45.5603 41.5973L44.3615 41.5434L44.1076 47.1879L45.3064 47.2418ZM44.8865 42.1657C44.9369 42.172 45.0256 42.1742 45.0898 42.1759C45.176 42.1782 45.2968 42.1808 45.4516 42.1836C45.7614 42.1894 46.2122 42.1963 46.8033 42.2044C47.9857 42.2207 49.7327 42.2419 52.044 42.2679L52.0575 41.068C49.7465 41.042 48.0007 41.0208 46.8198 41.0045C46.2292 40.9964 45.7807 40.9895 45.4737 40.9838C45.32 40.981 45.2031 40.9785 45.1219 40.9763C45.019 40.9736 45.011 40.9719 45.0354 40.9749L44.8865 42.1657ZM52.0457 42.2679C54.3627 42.2875 56.1354 42.3102 57.3653 42.3362C57.9806 42.3492 58.4571 42.3629 58.7966 42.3773C58.9667 42.3845 59.0989 42.3917 59.1952 42.3988C59.3048 42.4069 59.3355 42.4127 59.3257 42.4105L59.5806 41.2379C59.4428 41.208 59.1697 41.192 58.8474 41.1784C58.4953 41.1635 58.009 41.1495 57.3906 41.1365C56.153 41.1103 54.3743 41.0875 52.0558 41.068L52.0457 42.2679ZM58.8531 41.8242V57H60.0531V41.8242H58.8531ZM59.4213 56.4008L55.7494 56.5962L55.8131 57.7945L59.485 57.5992L59.4213 56.4008ZM56.3749 57.108L55.7889 53.1236L54.6017 53.2982L55.1876 57.2826L56.3749 57.108ZM54.7298 52.8324C53.7001 54.0988 51.9295 55.177 49.327 56.019L49.6964 57.1607C52.4065 56.2839 54.4249 55.1096 55.6608 53.5895L54.7298 52.8324ZM49.327 56.019C46.7175 56.8632 44.313 57.2789 42.1094 57.2789V58.4789C44.463 58.4789 46.9934 58.0352 49.6964 57.1607L49.327 56.019ZM42.1094 57.2789C39.861 57.2789 37.8083 57.1054 35.949 56.7616L35.7307 57.9416C37.6735 58.3008 39.8004 58.4789 42.1094 58.4789V57.2789ZM35.949 56.7616C34.0934 56.4184 32.3706 55.8794 30.7782 55.1464L30.2765 56.2364C31.9654 57.0139 33.7842 57.5816 35.7307 57.9416L35.949 56.7616ZM30.7818 55.148C29.1896 54.4025 27.8224 53.5038 26.6741 52.4553L25.865 53.3415C27.1125 54.4805 28.5838 55.4439 30.2729 56.2348L30.7818 55.148ZM26.6791 52.46C25.5601 51.4148 24.6759 50.132 24.0292 48.6023L22.9239 49.0696C23.6314 50.743 24.6092 52.1686 25.86 53.3369L26.6791 52.46ZM24.0292 48.6023C23.3891 47.0882 23.0609 45.3213 23.0609 43.2891H21.8609C21.8609 45.4495 22.2099 47.3805 22.9239 49.0696L24.0292 48.6023ZM23.0609 43.2891C23.0609 41.2775 23.4726 39.427 24.2905 37.7292L23.2095 37.2083C22.3087 39.0782 21.8609 41.108 21.8609 43.2891H23.0609ZM24.2905 37.7292C25.1132 36.0215 26.2168 34.6235 27.5998 33.5244L26.8533 32.5849C25.3197 33.8036 24.1056 35.3482 23.2095 37.2083L24.2905 37.7292ZM27.6012 33.5234C31.6035 30.324 37.6622 28.6742 45.8789 28.6742V27.4742C37.5331 27.4742 31.1569 29.1448 26.8519 32.586L27.6012 33.5234ZM45.8789 28.6742C47.2413 28.6742 49.0597 28.7955 51.3419 29.0418L51.4706 27.8488C49.1695 27.6004 47.303 27.4742 45.8789 27.4742V28.6742ZM51.3455 29.0422C53.6391 29.2755 55.4025 29.5519 56.65 29.8669L56.9438 28.7034C55.6131 28.3674 53.7828 28.0839 51.467 27.8484L51.3455 29.0422ZM56.1969 29.2852V37.8984H57.3969V29.2852H56.1969ZM81.7016 50.8477L81.2295 50.4772L81.2267 50.481L81.7016 50.8477ZM81.6234 43.2891L81.1808 43.6943L81.1869 43.7007L81.6234 43.2891ZM74.7094 43.5039L74.2223 43.1535L74.2215 43.1546L74.7094 43.5039ZM89.3578 38.875L89.0173 39.369L89.0204 39.3712L89.3578 38.875ZM92.3852 42.2148L91.8559 42.4975L91.858 42.5014L92.3852 42.2148ZM89.5141 55.0469L89.8508 55.5434L89.8514 55.5431L89.5141 55.0469ZM78.1859 52.9906C79.8813 52.9906 81.2462 52.4192 82.1765 51.2144L81.2267 50.481C80.5684 51.3334 79.5896 51.7906 78.1859 51.7906V52.9906ZM82.1736 51.2181C83.0784 50.0651 83.5125 48.6385 83.5125 46.9805H82.3125C82.3125 48.4214 81.9393 49.5729 81.2296 50.4772L82.1736 51.2181ZM83.5125 46.9805C83.5125 45.316 83.0478 43.9252 82.06 42.8775L81.1869 43.7007C81.9178 44.4759 82.3125 45.5459 82.3125 46.9805H83.5125ZM82.066 42.8839C81.084 41.8112 79.7379 41.3023 78.1078 41.3023V42.5023C79.4725 42.5023 80.4702 42.9179 81.1809 43.6942L82.066 42.8839ZM78.1078 41.3023C76.4481 41.3023 75.1202 41.9057 74.2223 43.1535L75.1964 43.8543C75.8351 42.9667 76.7727 42.5023 78.1078 42.5023V41.3023ZM74.2215 43.1546C73.3858 44.3217 72.9766 45.6905 72.9766 47.2344H74.1766C74.1766 45.9137 74.5225 44.7954 75.1972 43.8532L74.2215 43.1546ZM72.9766 47.2344C72.9766 49.0301 73.3764 50.4889 74.2816 51.5014C75.1982 52.5268 76.5385 52.9906 78.1859 52.9906V51.7906C76.7605 51.7906 75.7961 51.3951 75.1762 50.7017C74.5449 49.9955 74.1766 48.8762 74.1766 47.2344H72.9766ZM63.3562 47.3906C63.3562 43.795 64.6528 41.172 67.2071 39.4185C69.8022 37.6371 73.7698 36.7016 79.2016 36.7016V35.5016C73.6698 35.5016 69.4148 36.4475 66.528 38.4292C63.6006 40.4387 62.1562 43.4602 62.1562 47.3906H63.3562ZM79.2016 36.7016C83.1996 36.7016 86.458 37.6049 89.0173 39.369L89.6983 38.381C86.893 36.4472 83.3806 35.5016 79.2016 35.5016V36.7016ZM89.0204 39.3712C90.2452 40.204 91.1871 41.2451 91.8559 42.4975L92.9144 41.9322C92.1509 40.5023 91.0746 39.3168 89.6952 38.3788L89.0204 39.3712ZM91.858 42.5014C92.5403 43.7564 92.8789 45.0774 92.8789 46.4727H94.0789C94.0789 44.8731 93.6883 43.3556 92.9123 41.9282L91.858 42.5014ZM92.8789 46.4727C92.8789 50.2443 91.6175 52.8915 89.1767 54.5507L89.8514 55.5431C92.6971 53.6085 94.0789 50.5395 94.0789 46.4727H92.8789ZM89.1773 54.5503C86.6905 56.2369 82.9509 57.1227 77.8734 57.1227V58.3227C83.0564 58.3227 87.0772 57.4245 89.8508 55.5434L89.1773 54.5503ZM77.8734 57.1227C72.884 57.1227 69.248 56.2667 66.8741 54.6443C64.5412 53.0499 63.3562 50.6662 63.3562 47.3906H62.1562C62.1562 51.0031 63.4908 53.7854 66.197 55.635C68.8622 57.4566 72.7847 58.3227 77.8734 58.3227V57.1227ZM114.497 50.8477L114.025 50.4772L114.022 50.481L114.497 50.8477ZM114.419 43.2891L113.976 43.6943L113.982 43.7007L114.419 43.2891ZM107.505 43.5039L107.018 43.1535L107.017 43.1546L107.505 43.5039ZM122.153 38.875L121.813 39.369L121.816 39.3712L122.153 38.875ZM125.18 42.2148L124.651 42.4975L124.653 42.5014L125.18 42.2148ZM122.309 55.0469L122.646 55.5434L122.647 55.5431L122.309 55.0469ZM110.981 52.9906C112.677 52.9906 114.041 52.4192 114.972 51.2144L114.022 50.481C113.364 51.3334 112.385 51.7906 110.981 51.7906V52.9906ZM114.969 51.2181C115.874 50.0651 116.308 48.6385 116.308 46.9805H115.108C115.108 48.4214 114.735 49.5729 114.025 50.4772L114.969 51.2181ZM116.308 46.9805C116.308 45.316 115.843 43.9252 114.855 42.8775L113.982 43.7007C114.713 44.4759 115.108 45.5459 115.108 46.9805H116.308ZM114.861 42.8839C113.879 41.8112 112.533 41.3023 110.903 41.3023V42.5023C112.268 42.5023 113.266 42.9179 113.976 43.6942L114.861 42.8839ZM110.903 41.3023C109.243 41.3023 107.915 41.9057 107.018 43.1535L107.992 43.8543C108.63 42.9667 109.568 42.5023 110.903 42.5023V41.3023ZM107.017 43.1546C106.181 44.3217 105.772 45.6905 105.772 47.2344H106.972C106.972 45.9137 107.318 44.7954 107.993 43.8532L107.017 43.1546ZM105.772 47.2344C105.772 49.0301 106.172 50.4889 107.077 51.5014C107.994 52.5268 109.334 52.9906 110.981 52.9906V51.7906C109.556 51.7906 108.591 51.3951 107.972 50.7017C107.34 49.9955 106.972 48.8762 106.972 47.2344H105.772ZM96.1516 47.3906C96.1516 43.795 97.4481 41.172 100.002 39.4185C102.597 37.6371 106.565 36.7016 111.997 36.7016V35.5016C106.465 35.5016 102.21 36.4475 99.3233 38.4292C96.3959 40.4387 94.9516 43.4602 94.9516 47.3906H96.1516ZM111.997 36.7016C115.995 36.7016 119.253 37.6049 121.813 39.369L122.494 38.381C119.688 36.4472 116.176 35.5016 111.997 35.5016V36.7016ZM121.816 39.3712C123.04 40.204 123.982 41.2451 124.651 42.4975L125.71 41.9322C124.946 40.5023 123.87 39.3168 122.491 38.3788L121.816 39.3712ZM124.653 42.5014C125.336 43.7564 125.674 45.0774 125.674 46.4727H126.874C126.874 44.8731 126.484 43.3556 125.708 41.9282L124.653 42.5014ZM125.674 46.4727C125.674 50.2443 124.413 52.8915 121.972 54.5507L122.647 55.5431C125.492 53.6085 126.874 50.5395 126.874 46.4727H125.674ZM121.973 54.5503C119.486 56.2369 115.746 57.1227 110.669 57.1227V58.3227C115.852 58.3227 119.873 57.4245 122.646 55.5434L121.973 54.5503ZM110.669 57.1227C105.679 57.1227 102.043 56.2667 99.6694 54.6443C97.3366 53.0499 96.1516 50.6662 96.1516 47.3906H94.9516C94.9516 51.0031 96.2861 53.7854 98.9923 55.635C101.657 57.4566 105.58 58.3227 110.669 58.3227V57.1227ZM129.87 50.4766L129.993 49.8893C129.675 49.8227 129.362 50.0214 129.287 50.3375L129.87 50.4766ZM143.073 50.3008L142.88 50.8687C142.885 50.8704 142.89 50.8721 142.895 50.8737L143.073 50.3008ZM138.288 49.3438L138.188 49.9353L138.188 49.9353L138.288 49.3438ZM132.78 48.0547L132.999 47.4957L132.993 47.4937L132.78 48.0547ZM128.562 43.2305L127.962 43.2263V43.2305H128.562ZM130.73 38.8359L131.083 39.3212L131.084 39.3199L130.73 38.8359ZM152.741 37.332L153.333 37.4334C153.386 37.1245 153.192 36.8268 152.888 36.7502L152.741 37.332ZM151.804 42.8008L151.658 43.3829C151.82 43.4234 151.992 43.3945 152.132 43.3033C152.272 43.2121 152.367 43.0667 152.395 42.9022L151.804 42.8008ZM147.273 42.1367L147.21 42.7335L147.211 42.7335L147.273 42.1367ZM139.714 43.0742L139.511 43.6388L139.518 43.6412L139.714 43.0742ZM147.155 44.2461L147.034 44.8337L147.036 44.8342L147.155 44.2461ZM153.366 47.4102L152.877 47.7577L152.88 47.7614L153.366 47.4102ZM154.03 53.1523L154.596 53.3538L154.596 53.352L154.03 53.1523ZM150.124 56.5703L150.334 57.1324L150.336 57.1317L150.124 56.5703ZM133.874 57.2734L133.949 56.6782L133.946 56.6778L133.874 57.2734ZM128.581 55.8867L127.998 55.7477C127.935 56.0102 128.055 56.2822 128.292 56.4123L128.581 55.8867ZM129.747 51.0638C133.869 51.9274 137.286 52.3656 139.988 52.3656V51.1656C137.402 51.1656 134.075 50.7445 129.993 49.8893L129.747 51.0638ZM139.988 52.3656C141.316 52.3656 142.343 52.317 143.049 52.2127C143.396 52.1614 143.708 52.091 143.948 51.9845C144.139 51.8997 144.552 51.6696 144.552 51.1797H143.352C143.352 50.8851 143.6 50.8259 143.461 50.8875C143.371 50.9275 143.187 50.9792 142.873 51.0256C142.258 51.1166 141.302 51.1656 139.988 51.1656V52.3656ZM144.552 51.1797C144.552 50.8141 144.413 50.4886 144.157 50.233C143.917 49.9926 143.596 49.8351 143.252 49.7279L142.895 50.8737C143.137 50.9488 143.256 51.0289 143.308 51.0815C143.346 51.1188 143.352 51.1416 143.352 51.1797H144.552ZM143.267 49.7329C142.637 49.5182 140.985 49.1913 138.388 48.7522L138.188 49.9353C140.826 50.3816 142.364 50.6928 142.88 50.8687L143.267 49.7329ZM138.389 48.7522C135.787 48.3099 134.004 47.8881 132.999 47.4957L132.562 48.6136C133.692 49.0546 135.582 49.4922 138.188 49.9353L138.389 48.7522ZM132.993 47.4937C131.644 46.9814 130.685 46.3588 130.068 45.6529C129.461 44.9589 129.162 44.1603 129.162 43.2305H127.962C127.962 44.449 128.365 45.5287 129.165 46.4428C129.954 47.3449 131.105 48.0603 132.568 48.6156L132.993 47.4937ZM129.162 43.2346C129.174 41.5224 129.816 40.2424 131.083 39.3212L130.377 38.3507C128.779 39.5128 127.976 41.1625 127.962 43.2263L129.162 43.2346ZM131.084 39.3199C133.414 37.6124 137.29 36.7016 142.839 36.7016V35.5016C137.216 35.5016 133.02 36.4136 130.375 38.352L131.084 39.3199ZM142.839 36.7016C146.136 36.7016 149.387 37.1056 152.595 37.9138L152.888 36.7502C149.585 35.9179 146.235 35.5016 142.839 35.5016V36.7016ZM152.15 37.2307L151.213 42.6994L152.395 42.9022L153.333 37.4334L152.15 37.2307ZM151.949 42.2187C151.019 41.986 149.471 41.7614 147.335 41.5399L147.211 42.7335C149.345 42.9548 150.818 43.1728 151.658 43.3829L151.949 42.2187ZM147.335 41.54C145.198 41.3171 143.301 41.2047 141.648 41.2047V42.4047C143.249 42.4047 145.103 42.5137 147.21 42.7335L147.335 41.54ZM141.648 41.2047C140.827 41.2047 140.156 41.2595 139.673 41.3921C139.433 41.4578 139.19 41.5555 138.996 41.7148C138.784 41.889 138.626 42.1455 138.626 42.4688H139.826C139.826 42.5706 139.768 42.6335 139.758 42.6416C139.758 42.6416 139.759 42.6414 139.759 42.641C139.76 42.6405 139.761 42.6399 139.762 42.6391C139.764 42.6375 139.767 42.6352 139.772 42.6323C139.782 42.6265 139.796 42.6188 139.816 42.6098C139.856 42.5915 139.913 42.5706 139.99 42.5493C140.314 42.4605 140.854 42.4047 141.648 42.4047V41.2047ZM138.626 42.4688C138.626 42.7337 138.704 42.9927 138.881 43.2116C139.051 43.4222 139.278 43.555 139.511 43.6388L139.917 42.5097C139.824 42.4763 139.808 42.4495 139.815 42.4583C139.819 42.4631 139.823 42.4706 139.826 42.478C139.828 42.4846 139.826 42.4831 139.826 42.4688H138.626ZM139.518 43.6412C139.745 43.7198 140.162 43.8016 140.711 43.891C141.28 43.9837 142.043 44.092 142.996 44.2161L143.151 43.0261C142.203 42.9028 141.455 42.7963 140.904 42.7066C140.334 42.6137 140.022 42.5459 139.91 42.5072L139.518 43.6412ZM142.996 44.2161C144.896 44.4634 146.238 44.6693 147.034 44.8337L147.277 43.6585C146.433 43.4843 145.053 43.2736 143.151 43.0261L142.996 44.2161ZM147.036 44.8342C150.073 45.4492 151.956 46.4615 152.877 47.7577L153.856 47.0626C152.667 45.3901 150.41 44.293 147.275 43.658L147.036 44.8342ZM152.88 47.7614C153.486 48.6003 153.782 49.5068 153.782 50.4961H154.982C154.982 49.2458 154.601 48.095 153.853 47.0589L152.88 47.7614ZM153.782 50.4961C153.782 51.5692 153.667 52.3786 153.465 52.9527L154.596 53.352C154.862 52.5979 154.982 51.6366 154.982 50.4961H153.782ZM153.465 52.9509C153.011 54.2245 151.885 55.2645 149.912 56.009L150.336 57.1317C152.504 56.3137 153.982 55.075 154.596 53.3538L153.465 52.9509ZM149.914 56.0082C147.961 56.7378 144.917 57.1227 140.73 57.1227V58.3227C144.954 58.3227 148.173 57.9393 150.334 57.1324L149.914 56.0082ZM140.73 57.1227C138.556 57.1227 136.296 56.9748 133.949 56.6782L133.799 57.8687C136.192 58.1711 138.502 58.3227 140.73 58.3227V57.1227ZM133.946 56.6778C131.601 56.3943 129.928 55.9434 128.871 55.3611L128.292 56.4123C129.552 57.1061 131.408 57.5796 133.802 57.8691L133.946 56.6778ZM129.165 56.0258L130.454 50.6156L129.287 50.3375L127.998 55.7477L129.165 56.0258ZM174.775 44.7734L174.772 45.3734C174.932 45.3743 175.087 45.3106 175.2 45.1966C175.314 45.0826 175.377 44.9279 175.375 44.7671L174.775 44.7734ZM173.916 42.1758L173.507 42.6155L173.513 42.6202L173.916 42.1758ZM168.935 42.3711L169.351 42.8039L169.355 42.7996L168.935 42.3711ZM167.724 44.7344L167.132 44.6371C167.104 44.8103 167.153 44.9873 167.266 45.1214C167.379 45.2556 167.545 45.3334 167.721 45.3344L167.724 44.7344ZM182.431 55.3984L182.794 55.8766C182.931 55.7726 183.017 55.6148 183.03 55.4432L182.431 55.3984ZM178.115 57L177.986 56.414L177.982 56.4148L178.115 57ZM163.115 56.4531L162.91 57.0172L162.915 57.0189L163.115 56.4531ZM159.697 54.6367L159.324 55.1072L159.332 55.1128L159.697 54.6367ZM157.412 51.7656L156.874 52.0316L156.875 52.034L157.412 51.7656ZM159.755 39.6367L160.154 40.0848L160.155 40.0846L159.755 39.6367ZM178.037 37.4688L178.277 36.9188L178.271 36.9164L178.037 37.4688ZM182.627 41.6875L182.087 41.9498L182.089 41.9532L182.627 41.6875ZM183.408 45.1836L184.006 45.2271C184.007 45.2126 184.008 45.1981 184.008 45.1836H183.408ZM183.173 48.4062L183.17 49.0062C183.486 49.0078 183.749 48.7646 183.772 48.4498L183.173 48.4062ZM167.334 48.3281L167.337 47.7281C167.15 47.7272 166.973 47.8132 166.859 47.9608C166.745 48.1083 166.706 48.3007 166.753 48.4811L167.334 48.3281ZM169.599 51.1211L169.304 51.6434L169.306 51.6448L169.599 51.1211ZM181.748 50.4375V49.8375C181.669 49.8375 181.59 49.8532 181.517 49.8836L181.748 50.4375ZM182.802 50.4375L183.401 50.4823C183.413 50.3158 183.356 50.1517 183.242 50.0294C183.129 49.907 182.969 49.8375 182.802 49.8375V50.4375ZM175.375 44.7671C175.361 43.4763 175.061 42.4045 174.319 41.7313L173.513 42.6202C173.89 42.9627 174.163 43.6227 174.175 44.7798L175.375 44.7671ZM174.324 41.7361C173.626 41.0882 172.648 40.8141 171.494 40.8141V42.0141C172.475 42.0141 173.111 42.2477 173.507 42.6155L174.324 41.7361ZM171.494 40.8141C170.309 40.8141 169.296 41.1773 168.515 41.9426L169.355 42.7996C169.876 42.2888 170.569 42.0141 171.494 42.0141V40.8141ZM168.52 41.9383C167.769 42.6593 167.308 43.5677 167.132 44.6371L168.316 44.8317C168.453 44 168.8 43.3329 169.351 42.8039L168.52 41.9383ZM167.721 45.3344L174.772 45.3734L174.778 44.1734L167.728 44.1344L167.721 45.3344ZM182.069 54.9203C181.372 55.4484 180.044 55.9609 177.986 56.414L178.244 57.586C180.326 57.1276 181.876 56.5724 182.794 55.8766L182.069 54.9203ZM177.982 56.4148C175.952 56.8746 173.985 57.1031 172.08 57.1031V58.3031C174.081 58.3031 176.137 58.0629 178.247 57.5852L177.982 56.4148ZM172.08 57.1031C170.156 57.1031 168.538 57.0126 167.218 56.8351L167.058 58.0243C168.447 58.2113 170.123 58.3031 172.08 58.3031V57.1031ZM167.218 56.8351C165.906 56.6584 164.605 56.3428 163.315 55.8873L162.915 57.0189C164.281 57.5009 165.662 57.8364 167.058 58.0243L167.218 56.8351ZM163.319 55.8891C162.039 55.4246 160.956 54.8465 160.062 54.1607L159.332 55.1128C160.339 55.8853 161.534 56.5181 162.91 57.0172L163.319 55.8891ZM160.069 54.1663C159.207 53.4837 158.499 52.5982 157.948 51.4973L156.875 52.034C157.496 53.2768 158.312 54.3054 159.324 55.1071L160.069 54.1663ZM157.95 51.4997C157.413 50.415 157.133 49.0975 157.133 47.5273H155.933C155.933 49.2385 156.238 50.7465 156.874 52.0316L157.95 51.4997ZM157.133 47.5273C157.133 45.9477 157.419 44.5131 157.982 43.2154L156.881 42.7377C156.246 44.2005 155.933 45.7997 155.933 47.5273H157.133ZM157.982 43.2154C158.552 41.9007 159.28 40.8636 160.154 40.0848L159.356 39.1886C158.33 40.1025 157.508 41.292 156.881 42.7377L157.982 43.2154ZM160.155 40.0846C162.65 37.8599 166.313 36.7016 171.24 36.7016V35.5016C166.14 35.5016 162.148 36.7 159.356 39.1889L160.155 40.0846ZM171.24 36.7016C173.544 36.7016 175.73 37.1418 177.802 38.0211L178.271 36.9164C176.047 35.9728 173.701 35.5016 171.24 35.5016V36.7016ZM177.797 38.0187C179.832 38.9066 181.246 40.2194 182.087 41.9498L183.166 41.4252C182.184 39.4056 180.539 37.9059 178.277 36.9188L177.797 38.0187ZM182.089 41.9532C182.565 42.9184 182.808 43.9917 182.808 45.1836H184.008C184.008 43.8234 183.73 42.566 183.165 41.4218L182.089 41.9532ZM182.809 45.1401L182.575 48.3627L183.772 48.4498L184.006 45.2271L182.809 45.1401ZM183.176 47.8063L167.337 47.7281L167.331 48.9281L183.17 49.0062L183.176 47.8063ZM166.753 48.4811C167.112 49.8424 167.984 50.8974 169.304 51.6434L169.894 50.5988C168.818 49.9906 168.18 49.1836 167.914 48.1751L166.753 48.4811ZM169.306 51.6448C170.641 52.3909 172.402 52.7367 174.541 52.7367V51.5367C172.512 51.5367 170.98 51.2055 169.892 50.5974L169.306 51.6448ZM174.541 52.7367C176.729 52.7367 179.212 52.143 181.978 50.9914L181.517 49.8836C178.841 50.9977 176.519 51.5367 174.541 51.5367V52.7367ZM181.748 51.0375H182.802V49.8375H181.748V51.0375ZM182.204 50.3927L181.833 55.3537L183.03 55.4432L183.401 50.4823L182.204 50.3927ZM194.758 50.2031H195.358C195.358 49.8828 195.106 49.619 194.786 49.6038L194.758 50.2031ZM194.758 55.9062L195.357 55.9374C195.358 55.927 195.358 55.9166 195.358 55.9062H194.758ZM194.68 57.4102V58.0102C194.999 58.0102 195.262 57.7601 195.279 57.4413L194.68 57.4102ZM186.945 57.4102L186.346 57.4417C186.363 57.7604 186.626 58.0102 186.945 58.0102V57.4102ZM186.906 50.1445V49.5445C186.575 49.5445 186.306 49.8132 186.306 50.1445H186.906ZM193.527 50.1445L193.556 49.5452C193.546 49.5448 193.537 49.5445 193.527 49.5445V50.1445ZM194.158 50.2031V55.9062H195.358V50.2031H194.158ZM194.159 55.8751L194.08 57.379L195.279 57.4413L195.357 55.9374L194.159 55.8751ZM194.68 56.8102H186.945V58.0102H194.68V56.8102ZM187.544 57.3786C187.519 56.9017 187.506 56.0116 187.506 54.6953H186.306C186.306 56.0093 186.319 56.929 186.346 57.4417L187.544 57.3786ZM187.506 54.6953V50.1445H186.306V54.6953H187.506ZM186.906 50.7445H193.527V49.5445H186.906V50.7445ZM193.499 50.7439L194.729 50.8024L194.786 49.6038L193.556 49.5452L193.499 50.7439ZM210.561 28.9141L211.161 28.9264C211.167 28.6402 210.97 28.3896 210.69 28.3281L210.561 28.9141ZM210.522 30.8086L209.922 30.7962V30.8086H210.522ZM210.346 34.8516L209.747 34.8187L209.747 34.8223L210.346 34.8516ZM210.17 38.582L209.571 38.5598C209.562 38.7864 209.682 38.9984 209.881 39.1077C210.08 39.217 210.323 39.205 210.51 39.0766L210.17 38.582ZM213.959 36.7852L213.78 36.2125L213.779 36.2129L213.959 36.7852ZM228.354 40.0469L228.794 39.6392L228.793 39.6381L228.354 40.0469ZM229.682 50.9648L229.155 50.6786L229.153 50.6825L229.682 50.9648ZM226.752 54.5L227.129 54.967L227.13 54.9666L226.752 54.5ZM222.436 56.8438L222.237 56.2777L222.236 56.2782L222.436 56.8438ZM206.381 53.2891H205.781C205.781 53.4274 205.829 53.5614 205.917 53.6685L206.381 53.2891ZM206.381 53.2109H206.981C206.981 52.9167 206.768 52.6658 206.477 52.6187C206.187 52.5715 205.905 52.742 205.812 53.0212L206.381 53.2109ZM205.327 54.9688L204.821 54.645L205.327 54.9688ZM204.213 56.5508L203.977 55.9993C203.966 56.0039 203.955 56.0089 203.945 56.0141L204.213 56.5508ZM198.471 56.8828L197.872 56.8577C197.864 57.0444 197.943 57.2241 198.087 57.3437L198.471 56.8828ZM199.506 32.2148L200.106 32.24C200.106 32.2316 200.106 32.2232 200.106 32.2148H199.506ZM199.506 29.5977L199.427 29.0029C199.129 29.0427 198.906 29.2969 198.906 29.5977H199.506ZM217.885 43.6992L217.431 44.0913L217.437 44.0978L217.885 43.6992ZM211.85 43.0156L211.513 42.5191L211.513 42.5193L211.85 43.0156ZM209.961 28.9017L209.922 30.7962L211.122 30.821L211.161 28.9264L209.961 28.9017ZM209.922 30.8086C209.922 31.3484 209.865 32.6777 209.747 34.8187L210.945 34.8844C211.062 32.7546 211.122 31.3885 211.122 30.8086H209.922ZM209.747 34.8223C209.643 36.9555 209.584 38.2038 209.571 38.5598L210.77 38.6042C210.783 38.2572 210.841 37.0184 210.945 34.8808L209.747 34.8223ZM210.51 39.0766C211.535 38.3728 212.742 37.798 214.14 37.3574L213.779 36.2129C212.286 36.6838 210.967 37.3069 209.831 38.0874L210.51 39.0766ZM214.138 37.3578C215.544 36.9187 216.916 36.7016 218.256 36.7016V35.5016C216.784 35.5016 215.292 35.7402 213.78 36.2125L214.138 37.3578ZM218.256 36.7016C222.408 36.7016 225.602 37.9707 227.915 40.4556L228.793 39.6381C226.21 36.8626 222.672 35.5016 218.256 35.5016V36.7016ZM227.914 40.4545C229.427 42.0884 230.195 44.1507 230.195 46.6875H231.395C231.395 43.8858 230.536 41.5209 228.794 39.6392L227.914 40.4545ZM230.195 46.6875C230.195 48.067 229.852 49.3949 229.155 50.6786L230.209 51.2511C230.997 49.8004 231.395 48.2767 231.395 46.6875H230.195ZM229.153 50.6825C228.462 51.9775 227.538 53.0936 226.375 54.0334L227.13 54.9666C228.415 53.9272 229.444 52.6865 230.211 51.2472L229.153 50.6825ZM226.376 54.033C225.225 54.9613 223.848 55.7114 222.237 56.2777L222.635 57.4098C224.357 56.8042 225.858 55.9919 227.129 54.967L226.376 54.033ZM222.236 56.2782C220.655 56.8383 218.894 57.1227 216.948 57.1227V58.3227C219.012 58.3227 220.91 58.021 222.636 57.4093L222.236 56.2782ZM216.948 57.1227C215.021 57.1227 213.123 56.754 211.251 56.0125L210.809 57.1282C212.816 57.9231 214.864 58.3227 216.948 58.3227V57.1227ZM211.251 56.0125C209.392 55.2766 207.932 54.2391 206.846 52.9096L205.917 53.6685C207.149 55.1776 208.787 56.3276 210.809 57.1282L211.251 56.0125ZM206.981 53.2891V53.2109H205.781V53.2891H206.981ZM205.812 53.0212C205.818 53.0037 205.811 53.0269 205.759 53.122C205.714 53.2043 205.65 53.3158 205.564 53.4589C205.393 53.7443 205.146 54.139 204.821 54.645L205.832 55.2925C206.158 54.7829 206.413 54.3767 206.593 54.0763C206.683 53.9264 206.757 53.7987 206.813 53.6954C206.862 53.6049 206.919 53.4963 206.95 53.4007L205.812 53.0212ZM204.821 54.645C204.497 55.1506 204.247 55.5277 204.069 55.7807C203.98 55.9082 203.914 55.9961 203.869 56.0506C203.859 56.0636 203.85 56.0733 203.844 56.0802C203.838 56.0874 203.835 56.0899 203.836 56.089C203.836 56.0889 203.845 56.0802 203.861 56.0677C203.872 56.0587 203.913 56.0267 203.977 55.9993L204.45 57.1023C204.577 57.0478 204.663 56.9595 204.685 56.9375C204.725 56.8972 204.764 56.8522 204.799 56.8093C204.87 56.7222 204.955 56.6074 205.051 56.4713C205.244 56.1969 205.505 55.8026 205.832 55.2925L204.821 54.645ZM203.945 56.0141C204 55.9866 204.04 55.9794 204.003 55.989C203.986 55.9936 203.956 56.0006 203.91 56.0103C203.819 56.0296 203.687 56.0552 203.51 56.0874C203.158 56.1515 202.644 56.2388 201.968 56.3493L202.162 57.5335C202.84 57.4227 203.362 57.3341 203.725 57.2681C203.906 57.2351 204.052 57.207 204.16 57.184C204.214 57.1726 204.263 57.1613 204.305 57.1504C204.327 57.1446 204.407 57.1247 204.482 57.0874L203.945 56.0141ZM201.968 56.3493C200.598 56.5732 199.792 56.6734 199.487 56.6734V57.8734C199.911 57.8734 200.824 57.7523 202.162 57.5335L201.968 56.3493ZM199.487 56.6734C199.279 56.6734 199.073 56.6035 198.855 56.4219L198.087 57.3437C198.494 57.6829 198.965 57.8734 199.487 57.8734V56.6734ZM199.071 56.908L200.106 32.24L198.907 32.1897L197.872 56.8577L199.071 56.908ZM200.106 32.2148V29.5977H198.906V32.2148H200.106ZM199.586 30.1924C204.093 29.5914 206.847 29.2992 207.905 29.2992V28.0992C206.749 28.0992 203.904 28.406 199.427 29.0029L199.586 30.1924ZM207.905 29.2992C209.006 29.2992 209.842 29.3703 210.432 29.5L210.69 28.3281C209.978 28.1714 209.043 28.0992 207.905 28.0992V29.2992ZM214.35 52.6391C215.971 52.6391 217.311 52.0859 218.299 50.9481L217.393 50.1613C216.662 51.0027 215.671 51.4391 214.35 51.4391V52.6391ZM218.299 50.9481C219.254 49.849 219.735 48.5568 219.735 47.0977H218.535C218.535 48.2687 218.157 49.2812 217.393 50.1613L218.299 50.9481ZM219.735 47.0977C219.735 45.632 219.271 44.3548 218.334 43.3006L217.437 44.0978C218.166 44.9187 218.535 45.907 218.535 47.0977H219.735ZM218.339 43.3072C217.384 42.2002 216.052 41.6734 214.428 41.6734V42.8734C215.773 42.8734 216.746 43.2972 217.431 44.0912L218.339 43.3072ZM214.428 41.6734C213.334 41.6734 212.354 41.9488 211.513 42.5191L212.187 43.5121C212.805 43.0929 213.543 42.8734 214.428 42.8734V41.6734ZM211.513 42.5193C209.95 43.581 209.18 45.1645 209.18 47.1758H210.38C210.38 45.5152 210.99 44.3252 212.187 43.512L211.513 42.5193ZM209.18 47.1758C209.18 48.6221 209.62 49.8984 210.508 50.9754L211.434 50.2121C210.733 49.362 210.38 48.3596 210.38 47.1758H209.18ZM210.508 50.9754C211.436 52.1012 212.746 52.6391 214.35 52.6391V51.4391C213.037 51.4391 212.095 51.0134 211.434 50.2121L210.508 50.9754ZM241.696 59.8125L242.258 60.0232C242.32 59.8583 242.306 59.6747 242.22 59.5208L241.696 59.8125ZM230.095 37.4688L230.069 36.8693C229.857 36.8783 229.666 36.9981 229.566 37.1844C229.466 37.3707 229.471 37.596 229.58 37.7774L230.095 37.4688ZM241.501 36.9805L242.052 36.7427C241.953 36.5143 241.724 36.3704 241.475 36.381L241.501 36.9805ZM246.989 49.6953L246.438 49.9331C246.535 50.158 246.759 50.3013 247.004 50.2951C247.249 50.2889 247.466 50.1344 247.551 49.9048L246.989 49.6953ZM249.04 43.5039L248.47 43.3174L248.469 43.3193L249.04 43.5039ZM251.266 37L251.217 36.4021C250.991 36.4209 250.795 36.5655 250.71 36.7757L251.266 37ZM252.575 36.9414L252.598 36.3418C252.59 36.3415 252.583 36.3414 252.575 36.3414V36.9414ZM261.384 37.2734L261.937 37.5042C262.013 37.3227 261.995 37.1157 261.889 36.9501C261.783 36.7845 261.603 36.6813 261.406 36.6739L261.384 37.2734ZM255.544 50.8672L256.093 51.1075L256.094 51.1074L255.544 50.8672ZM251.169 60.6719L250.636 60.396L250.635 60.3977L251.169 60.6719ZM247.79 65.5547L247.353 65.1432L247.352 65.1442L247.79 65.5547ZM236.403 69.9688L235.893 70.2841C236.002 70.4611 236.195 70.5687 236.403 70.5687V69.9688ZM233.024 64.5V63.9C232.807 63.9 232.606 64.0178 232.5 64.2078C232.394 64.3978 232.399 64.6303 232.514 64.8154L233.024 64.5ZM236.501 63.6016L236.719 64.1606L236.722 64.1593L236.501 63.6016ZM242.22 59.5208L240.58 56.5716L239.531 57.155L241.172 60.1042L242.22 59.5208ZM240.58 56.5716C239.493 54.6182 237.643 51.0352 235.025 45.8132L233.953 46.3509C236.57 51.5716 238.43 55.1761 239.531 57.155L240.58 56.5716ZM235.025 45.8132C232.417 40.6092 230.937 37.7064 230.609 37.1601L229.58 37.7774C229.877 38.2727 231.327 41.1122 233.953 46.3509L235.025 45.8132ZM230.12 38.0682L241.526 37.5799L241.475 36.381L230.069 36.8693L230.12 38.0682ZM240.95 37.2182L246.438 49.9331L247.54 49.4575L242.052 36.7427L240.95 37.2182ZM247.551 49.9048C247.805 49.2251 248.493 47.1453 249.611 43.6885L248.469 43.3193C247.347 46.7896 246.668 48.8374 246.427 49.4858L247.551 49.9048ZM249.61 43.6904C250.745 40.2202 251.481 38.0739 251.823 37.2243L250.71 36.7757C250.349 37.6709 249.6 39.8606 248.47 43.3174L249.61 43.6904ZM251.316 37.5979C251.771 37.56 252.19 37.5414 252.575 37.5414V36.3414C252.152 36.3414 251.699 36.3618 251.217 36.4021L251.316 37.5979ZM252.575 36.9414C252.552 37.541 252.552 37.541 252.552 37.541C252.552 37.541 252.552 37.541 252.553 37.541C252.553 37.541 252.553 37.541 252.553 37.541C252.553 37.541 252.553 37.541 252.553 37.541C252.553 37.541 252.553 37.541 252.553 37.541C252.553 37.541 252.553 37.541 252.554 37.541C252.554 37.5411 252.554 37.541 252.555 37.5411C252.555 37.5411 252.555 37.5411 252.555 37.5411C252.555 37.5411 252.556 37.5411 252.556 37.5411C252.557 37.5411 252.556 37.5411 252.557 37.5412C252.561 37.5413 252.557 37.5412 252.561 37.5413C252.569 37.5416 252.563 37.5414 252.572 37.5417C252.585 37.5422 252.565 37.5415 252.579 37.542C252.583 37.5421 252.578 37.5419 252.583 37.5421C252.585 37.5422 252.585 37.5422 252.587 37.5423C252.645 37.5445 252.566 37.5415 252.63 37.5439C252.631 37.5439 252.655 37.5449 252.658 37.545C252.678 37.5457 252.653 37.5448 252.673 37.5455C252.683 37.5459 252.672 37.5455 252.682 37.5458C252.683 37.5459 252.684 37.546 252.686 37.546C252.687 37.5461 252.689 37.5461 252.69 37.5462C252.744 37.5482 252.671 37.5454 252.727 37.5475C252.742 37.5481 252.73 37.5477 252.746 37.5483C252.761 37.5488 252.742 37.5481 252.757 37.5487C252.771 37.5492 252.753 37.5486 252.767 37.5491C252.816 37.5509 252.741 37.5481 252.789 37.5499C252.8 37.5503 252.802 37.5504 252.813 37.5508C252.818 37.551 252.819 37.551 252.825 37.5512C252.834 37.5516 252.827 37.5513 252.837 37.5517C252.865 37.5528 252.833 37.5516 252.862 37.5527C252.868 37.5529 252.882 37.5534 252.888 37.5536C252.902 37.5542 252.888 37.5536 252.902 37.5542C252.907 37.5544 252.911 37.5545 252.916 37.5547C252.951 37.556 252.909 37.5544 252.944 37.5558C252.946 37.5558 252.971 37.5568 252.974 37.5569C252.994 37.5576 252.969 37.5567 252.989 37.5574C252.992 37.5575 252.994 37.5576 252.997 37.5577C252.999 37.5578 253.002 37.5579 253.005 37.558C253.05 37.5598 252.99 37.5575 253.036 37.5592C253.039 37.5593 253.042 37.5594 253.044 37.5595C253.047 37.5596 253.05 37.5597 253.053 37.5598C253.055 37.5599 253.058 37.56 253.061 37.5601C253.064 37.5602 253.066 37.5604 253.069 37.5605C253.097 37.5615 253.058 37.56 253.086 37.5611C253.089 37.5612 253.092 37.5613 253.094 37.5614C253.097 37.5615 253.1 37.5616 253.103 37.5617C253.157 37.5638 253.083 37.561 253.138 37.563C253.141 37.5632 253.144 37.5633 253.147 37.5634C253.15 37.5635 253.153 37.5636 253.156 37.5637C253.159 37.5638 253.162 37.5639 253.165 37.5641C253.168 37.5642 253.171 37.5643 253.174 37.5644C253.209 37.5657 253.157 37.5638 253.192 37.5651C253.195 37.5652 253.199 37.5653 253.202 37.5655C253.205 37.5656 253.208 37.5657 253.211 37.5658C253.214 37.5659 253.217 37.566 253.22 37.5662C253.224 37.5663 253.227 37.5664 253.23 37.5665C253.268 37.568 253.211 37.5658 253.249 37.5672C253.266 37.5679 253.252 37.5674 253.269 37.568C253.272 37.5681 253.275 37.5682 253.279 37.5683C253.282 37.5685 253.285 37.5686 253.288 37.5687C253.329 37.5703 253.268 37.5679 253.308 37.5695C253.324 37.5701 253.313 37.5696 253.329 37.5702C253.332 37.5704 253.336 37.5705 253.339 37.5706C253.342 37.5708 253.346 37.5709 253.349 37.571C253.393 37.5727 253.327 37.5702 253.37 37.5718C253.386 37.5724 253.376 37.572 253.391 37.5726C253.395 37.5727 253.398 37.5729 253.402 37.573C253.405 37.5731 253.409 37.5733 253.413 37.5734C253.461 37.5752 253.386 37.5724 253.434 37.5742C253.447 37.5747 253.444 37.5746 253.456 37.575C253.46 37.5752 253.464 37.5753 253.467 37.5755C253.471 37.5756 253.475 37.5757 253.478 37.5759C253.498 37.5766 253.481 37.576 253.501 37.5767C253.512 37.5772 253.512 37.5771 253.523 37.5776C253.527 37.5777 253.531 37.5779 253.535 37.578C253.539 37.5782 253.543 37.5783 253.546 37.5785C253.568 37.5793 253.548 37.5785 253.57 37.5793C253.581 37.5797 253.582 37.5798 253.593 37.5802C253.597 37.5804 253.601 37.5805 253.605 37.5807C253.609 37.5808 253.613 37.581 253.617 37.5811C253.641 37.582 253.618 37.5811 253.641 37.582C253.652 37.5824 253.654 37.5825 253.665 37.5829C253.67 37.5831 253.674 37.5832 253.678 37.5834C253.682 37.5836 253.686 37.5837 253.69 37.5839C253.716 37.5848 253.689 37.5838 253.715 37.5848C253.725 37.5852 253.73 37.5854 253.74 37.5857C253.744 37.5859 253.748 37.5861 253.753 37.5862C253.757 37.5864 253.761 37.5865 253.765 37.5867C253.795 37.5878 253.762 37.5866 253.791 37.5877C253.834 37.5893 253.958 37.5939 254.006 37.5958C254.041 37.5971 253.999 37.5955 254.034 37.5968C254.038 37.597 254.059 37.5978 254.063 37.5979C254.067 37.5981 254.072 37.5983 254.077 37.5984C254.082 37.5986 254.086 37.5988 254.091 37.599C254.129 37.6004 254.082 37.5987 254.12 37.6001C254.124 37.6002 254.145 37.601 254.149 37.6012C254.154 37.6014 254.159 37.6015 254.164 37.6017C254.169 37.6019 254.174 37.6021 254.179 37.6023C254.217 37.6037 254.17 37.6019 254.208 37.6034C254.211 37.6035 254.236 37.6044 254.238 37.6045C254.243 37.6047 254.248 37.6049 254.254 37.6051C254.259 37.6053 254.264 37.6055 254.269 37.6057C254.313 37.6074 254.254 37.6051 254.299 37.6068C254.302 37.6069 254.327 37.6079 254.33 37.608C254.335 37.6082 254.34 37.6084 254.345 37.6086C254.351 37.6088 254.356 37.609 254.361 37.6092C254.407 37.6109 254.346 37.6086 254.392 37.6103C254.398 37.6105 254.403 37.6107 254.408 37.6109C254.413 37.6111 254.419 37.6113 254.424 37.6115C254.429 37.6117 254.434 37.6119 254.44 37.6121C254.445 37.6123 254.45 37.6125 254.456 37.6127C254.505 37.6146 254.439 37.6121 254.488 37.6139C254.493 37.6141 254.499 37.6143 254.504 37.6145C254.509 37.6147 254.515 37.615 254.52 37.6152C254.526 37.6154 254.531 37.6156 254.537 37.6158C254.542 37.616 254.547 37.6162 254.553 37.6164C254.603 37.6183 254.536 37.6157 254.586 37.6176C254.591 37.6178 254.597 37.618 254.602 37.6183C254.608 37.6185 254.614 37.6187 254.619 37.6189C254.625 37.6191 254.63 37.6193 254.636 37.6195C254.641 37.6197 254.647 37.6199 254.653 37.6201C254.704 37.6221 254.635 37.6195 254.686 37.6214C254.692 37.6216 254.698 37.6218 254.703 37.6221C254.709 37.6223 254.715 37.6225 254.72 37.6227C254.726 37.6229 254.732 37.6231 254.737 37.6233C254.743 37.6236 254.749 37.6238 254.755 37.624C254.809 37.626 254.735 37.6232 254.789 37.6253C254.795 37.6255 254.801 37.6257 254.806 37.6259C254.812 37.6262 254.818 37.6264 254.824 37.6266C254.83 37.6268 254.836 37.627 254.841 37.6273C254.847 37.6275 254.853 37.6277 254.859 37.6279C254.915 37.63 254.839 37.6272 254.894 37.6293C254.9 37.6295 254.906 37.6297 254.912 37.6299C254.918 37.6302 254.924 37.6304 254.93 37.6306C254.936 37.6308 254.942 37.6311 254.948 37.6313C254.954 37.6315 254.96 37.6317 254.966 37.632C255.025 37.6342 254.943 37.6311 255.002 37.6333C255.008 37.6335 255.014 37.6338 255.02 37.634C255.026 37.6342 255.032 37.6345 255.038 37.6347C255.045 37.6349 255.051 37.6351 255.057 37.6354C255.063 37.6356 255.069 37.6358 255.075 37.6361C255.081 37.6363 255.087 37.6365 255.094 37.6368C255.1 37.637 255.106 37.6372 255.112 37.6375C255.118 37.6377 255.124 37.6379 255.131 37.6382C255.137 37.6384 255.143 37.6386 255.149 37.6389C255.156 37.6391 255.162 37.6393 255.168 37.6396C255.174 37.6398 255.181 37.64 255.187 37.6403C255.193 37.6405 255.199 37.6408 255.206 37.641C255.212 37.6412 255.218 37.6415 255.225 37.6417C255.231 37.6419 255.237 37.6422 255.244 37.6424C255.25 37.6427 255.256 37.6429 255.263 37.6431C255.269 37.6434 255.275 37.6436 255.282 37.6439C255.288 37.6441 255.295 37.6443 255.301 37.6446C255.307 37.6448 255.314 37.6451 255.32 37.6453C255.327 37.6456 255.333 37.6458 255.339 37.646C255.346 37.6463 255.352 37.6465 255.359 37.6468C255.365 37.647 255.372 37.6473 255.378 37.6475C255.385 37.6477 255.391 37.648 255.398 37.6482C255.404 37.6485 255.411 37.6487 255.417 37.649C255.424 37.6492 255.431 37.6495 255.437 37.6497C255.444 37.65 255.45 37.6502 255.457 37.6505C255.463 37.6507 255.47 37.651 255.477 37.6512C255.483 37.6515 255.49 37.6517 255.496 37.652C255.503 37.6522 255.51 37.6525 255.516 37.6527C255.523 37.653 255.53 37.6532 255.536 37.6535C255.543 37.6537 255.55 37.654 255.556 37.6542C255.563 37.6545 255.57 37.6547 255.577 37.655C255.583 37.6552 255.59 37.6555 255.597 37.6557C255.604 37.656 255.61 37.6562 255.617 37.6565C255.624 37.6568 255.631 37.657 255.637 37.6573C255.644 37.6575 255.651 37.6578 255.658 37.658C255.665 37.6583 255.671 37.6585 255.678 37.6588C255.685 37.6591 255.692 37.6593 255.699 37.6596C255.706 37.6598 255.712 37.6601 255.719 37.6604C255.726 37.6606 255.733 37.6609 255.74 37.6611C255.747 37.6614 255.754 37.6617 255.761 37.6619C255.768 37.6622 255.775 37.6624 255.782 37.6627C255.788 37.663 255.795 37.6632 255.802 37.6635C255.809 37.6637 255.816 37.664 255.823 37.6643C255.83 37.6645 255.837 37.6648 255.844 37.6651C255.851 37.6653 255.858 37.6656 255.865 37.6659C255.872 37.6661 255.88 37.6664 255.887 37.6667C255.894 37.6669 255.901 37.6672 255.908 37.6675C255.915 37.6677 255.922 37.668 255.929 37.6683C255.936 37.6685 255.943 37.6688 255.95 37.6691C255.958 37.6693 255.965 37.6696 255.972 37.6699C255.979 37.6701 255.986 37.6704 255.993 37.6707C256 37.6709 256.008 37.6712 256.015 37.6715C256.022 37.6718 256.029 37.672 256.036 37.6723C256.044 37.6726 256.051 37.6729 256.058 37.6731C256.065 37.6734 256.073 37.6737 256.08 37.6739C256.087 37.6742 256.094 37.6745 256.102 37.6748C256.109 37.675 256.116 37.6753 256.123 37.6756C256.131 37.6759 256.138 37.6761 256.145 37.6764C256.153 37.6767 256.16 37.677 256.167 37.6772C256.175 37.6775 256.182 37.6778 256.19 37.6781C256.197 37.6784 256.204 37.6786 256.212 37.6789C256.219 37.6792 256.226 37.6795 256.234 37.6798C256.241 37.68 256.249 37.6803 256.256 37.6806C256.264 37.6809 256.271 37.6812 256.279 37.6814C256.286 37.6817 256.293 37.682 256.301 37.6823C256.308 37.6826 256.316 37.6828 256.323 37.6831C256.331 37.6834 256.338 37.6837 256.346 37.684C256.353 37.6843 256.361 37.6845 256.369 37.6848C256.376 37.6851 256.384 37.6854 256.391 37.6857C256.399 37.686 256.406 37.6863 256.414 37.6865C256.422 37.6868 256.429 37.6871 256.437 37.6874C256.444 37.6877 256.452 37.688 256.46 37.6883C256.467 37.6885 256.475 37.6888 256.483 37.6891C256.49 37.6894 256.498 37.6897 256.506 37.69C256.513 37.6903 256.521 37.6906 256.529 37.6909C256.536 37.6912 256.544 37.6914 256.552 37.6917C256.56 37.692 256.567 37.6923 256.575 37.6926C256.583 37.6929 256.591 37.6932 256.598 37.6935C256.606 37.6938 256.614 37.6941 256.622 37.6944C256.63 37.6947 256.637 37.695 256.645 37.6953C256.653 37.6955 256.661 37.6958 256.669 37.6961C256.676 37.6964 256.684 37.6967 256.692 37.697C256.7 37.6973 256.708 37.6976 256.716 37.6979C256.724 37.6982 256.732 37.6985 256.74 37.6988C256.747 37.6991 256.755 37.6994 256.763 37.6997C256.771 37.7 256.779 37.7003 256.787 37.7006C256.795 37.7009 256.803 37.7012 256.811 37.7015C256.819 37.7018 256.827 37.7021 256.835 37.7024C256.843 37.7027 256.851 37.703 256.859 37.7033C256.867 37.7036 256.875 37.7039 256.883 37.7042C256.891 37.7045 256.899 37.7048 256.907 37.7051C256.915 37.7054 256.923 37.7057 256.931 37.706C256.94 37.7064 256.948 37.7067 256.956 37.707C256.964 37.7073 256.972 37.7076 256.98 37.7079C256.988 37.7082 256.996 37.7085 257.005 37.7088C257.013 37.7091 257.021 37.7094 257.029 37.7097C257.037 37.71 257.045 37.7103 257.054 37.7106C257.062 37.711 257.07 37.7113 257.078 37.7116C257.086 37.7119 257.095 37.7122 257.103 37.7125C257.111 37.7128 257.119 37.7131 257.128 37.7134C257.136 37.7138 257.144 37.7141 257.153 37.7144C257.161 37.7147 257.169 37.715 257.177 37.7153C257.186 37.7156 257.194 37.7159 257.202 37.7163C257.211 37.7166 257.219 37.7169 257.227 37.7172C257.236 37.7175 257.244 37.7178 257.253 37.7181C257.261 37.7185 257.269 37.7188 257.278 37.7191C257.286 37.7194 257.295 37.7197 257.303 37.72C257.311 37.7204 257.32 37.7207 257.328 37.721C257.337 37.7213 257.345 37.7216 257.354 37.722C257.362 37.7223 257.371 37.7226 257.379 37.7229C257.388 37.7232 257.396 37.7236 257.405 37.7239C257.413 37.7242 257.422 37.7245 257.43 37.7248C257.439 37.7252 257.447 37.7255 257.456 37.7258C257.464 37.7261 257.473 37.7265 257.481 37.7268C257.49 37.7271 257.499 37.7274 257.507 37.7277C257.516 37.7281 257.524 37.7284 257.533 37.7287C257.542 37.729 257.55 37.7294 257.559 37.7297C257.568 37.73 257.576 37.7304 257.585 37.7307C257.594 37.731 257.602 37.7313 257.611 37.7317C257.62 37.732 257.628 37.7323 257.637 37.7326C257.646 37.733 257.655 37.7333 257.663 37.7336C257.672 37.734 257.681 37.7343 257.69 37.7346C257.698 37.7349 257.707 37.7353 257.716 37.7356C257.725 37.7359 257.733 37.7363 257.742 37.7366C257.751 37.7369 257.76 37.7373 257.769 37.7376C257.777 37.7379 257.786 37.7383 257.795 37.7386C257.804 37.7389 257.813 37.7393 257.822 37.7396C257.831 37.7399 257.839 37.7403 257.848 37.7406C257.857 37.7409 257.866 37.7413 257.875 37.7416C257.884 37.742 257.893 37.7423 257.902 37.7426C257.911 37.743 257.92 37.7433 257.929 37.7436C257.938 37.744 257.947 37.7443 257.956 37.7446C257.965 37.745 257.974 37.7453 257.983 37.7457C257.992 37.746 258.001 37.7463 258.01 37.7467C258.019 37.747 258.028 37.7474 258.037 37.7477C258.046 37.7481 258.055 37.7484 258.064 37.7487C258.073 37.7491 258.082 37.7494 258.091 37.7498C258.1 37.7501 258.109 37.7504 258.119 37.7508C258.128 37.7511 258.137 37.7515 258.146 37.7518C258.193 37.7536 258.319 37.7583 258.367 37.7602C258.377 37.7605 258.386 37.7609 258.395 37.7612C258.405 37.7616 258.414 37.7619 258.423 37.7623C258.433 37.7626 258.442 37.763 258.452 37.7633C258.461 37.7637 258.47 37.7641 258.48 37.7644C258.489 37.7648 258.499 37.7651 258.508 37.7655C258.518 37.7658 258.527 37.7662 258.536 37.7665C258.546 37.7669 258.555 37.7673 258.565 37.7676C258.574 37.768 258.584 37.7683 258.593 37.7687C258.603 37.769 258.612 37.7694 258.622 37.7698C258.631 37.7701 258.641 37.7705 258.65 37.7708C258.66 37.7712 258.669 37.7716 258.679 37.7719C258.689 37.7723 258.698 37.7726 258.708 37.773C258.717 37.7734 258.727 37.7737 258.737 37.7741C258.746 37.7744 258.756 37.7748 258.765 37.7752C258.775 37.7755 258.785 37.7759 258.794 37.7763C258.804 37.7766 258.814 37.777 258.823 37.7774C258.833 37.7777 258.843 37.7781 258.852 37.7785C258.862 37.7788 258.872 37.7792 258.882 37.7796C258.891 37.7799 258.901 37.7803 258.911 37.7807C258.921 37.781 258.93 37.7814 258.94 37.7818C258.95 37.7821 258.96 37.7825 258.969 37.7829C258.979 37.7832 258.989 37.7836 258.999 37.784C259.009 37.7843 259.018 37.7847 259.028 37.7851C259.038 37.7855 259.048 37.7858 259.058 37.7862C259.068 37.7866 259.077 37.7869 259.087 37.7873C259.097 37.7877 259.107 37.7881 259.117 37.7884C259.127 37.7888 259.137 37.7892 259.147 37.7895C259.157 37.7899 259.167 37.7903 259.177 37.7907C259.187 37.791 259.196 37.7914 259.206 37.7918C259.216 37.7922 259.226 37.7926 259.236 37.7929C259.246 37.7933 259.256 37.7937 259.266 37.7941C259.276 37.7944 259.286 37.7948 259.296 37.7952C259.307 37.7956 259.317 37.7959 259.327 37.7963C259.337 37.7967 259.347 37.7971 259.357 37.7975C259.367 37.7978 259.377 37.7982 259.387 37.7986C259.397 37.799 259.407 37.7994 259.417 37.7998C259.428 37.8001 259.438 37.8005 259.448 37.8009C259.458 37.8013 259.468 37.8017 259.478 37.802C259.488 37.8024 259.499 37.8028 259.509 37.8032C259.519 37.8036 259.529 37.804 259.539 37.8044C259.55 37.8047 259.56 37.8051 259.57 37.8055C259.58 37.8059 259.591 37.8063 259.601 37.8067C259.611 37.8071 259.621 37.8074 259.632 37.8078C259.642 37.8082 259.652 37.8086 259.663 37.809C259.673 37.8094 259.683 37.8098 259.694 37.8102C259.704 37.8105 259.714 37.8109 259.725 37.8113C259.735 37.8117 259.745 37.8121 259.756 37.8125C259.766 37.8129 259.776 37.8133 259.787 37.8137C259.797 37.8141 259.808 37.8145 259.818 37.8148C259.828 37.8152 259.839 37.8156 259.849 37.816C259.86 37.8164 259.87 37.8168 259.881 37.8172C259.891 37.8176 259.902 37.818 259.912 37.8184C259.923 37.8188 259.933 37.8192 259.944 37.8196C259.954 37.82 259.965 37.8204 259.975 37.8208C259.986 37.8212 259.996 37.8216 260.007 37.822C260.017 37.8224 260.028 37.8228 260.038 37.8232C260.049 37.8236 260.06 37.824 260.07 37.8244C260.081 37.8248 260.091 37.8252 260.102 37.8256C260.113 37.826 260.123 37.8264 260.134 37.8268C260.145 37.8272 260.155 37.8276 260.166 37.828C260.176 37.8284 260.187 37.8288 260.198 37.8292C260.209 37.8296 260.219 37.83 260.23 37.8304C260.241 37.8308 260.251 37.8312 260.262 37.8316C260.273 37.832 260.284 37.8324 260.294 37.8328C260.305 37.8332 260.316 37.8336 260.327 37.834C260.337 37.8344 260.348 37.8348 260.359 37.8352C260.37 37.8356 260.381 37.8361 260.391 37.8365C260.402 37.8369 260.413 37.8373 260.424 37.8377C260.435 37.8381 260.446 37.8385 260.456 37.8389C260.467 37.8393 260.478 37.8397 260.489 37.8401C260.5 37.8406 260.511 37.841 260.522 37.8414C260.533 37.8418 260.544 37.8422 260.555 37.8426C260.565 37.843 260.576 37.8434 260.587 37.8439C260.598 37.8443 260.609 37.8447 260.62 37.8451C260.631 37.8455 260.642 37.8459 260.653 37.8463C260.664 37.8467 260.675 37.8472 260.686 37.8476C260.697 37.848 260.708 37.8484 260.719 37.8488C260.73 37.8492 260.741 37.8497 260.753 37.8501C260.764 37.8505 260.775 37.8509 260.786 37.8513C260.797 37.8517 260.808 37.8522 260.819 37.8526C260.83 37.853 260.841 37.8534 260.852 37.8538C260.864 37.8543 260.875 37.8547 260.886 37.8551C260.897 37.8555 260.908 37.8559 260.919 37.8564C260.931 37.8568 260.942 37.8572 260.953 37.8576C260.964 37.8581 260.975 37.8585 260.987 37.8589C260.998 37.8593 261.009 37.8597 261.02 37.8602C261.032 37.8606 261.043 37.861 261.054 37.8614C261.065 37.8619 261.077 37.8623 261.088 37.8627C261.099 37.8631 261.11 37.8636 261.122 37.864C261.133 37.8644 261.144 37.8648 261.156 37.8653C261.167 37.8657 261.178 37.8661 261.19 37.8666C261.201 37.867 261.213 37.8674 261.224 37.8678C261.235 37.8683 261.247 37.8687 261.258 37.8691C261.269 37.8696 261.281 37.87 261.292 37.8704C261.304 37.8709 261.315 37.8713 261.327 37.8717C261.338 37.8721 261.35 37.8726 261.361 37.873L261.406 36.6739C261.208 36.6664 261.057 36.6607 260.864 36.6534C260.764 36.6497 260.699 36.6472 260.6 36.6435C260.555 36.6418 260.513 36.6402 260.469 36.6385C260.447 36.6377 260.426 36.6369 260.404 36.6361C260.362 36.6345 260.382 36.6353 260.34 36.6337C260.297 36.6321 260.253 36.6304 260.211 36.6288C260.168 36.6272 260.127 36.6256 260.084 36.624C259.997 36.6208 259.917 36.6177 259.832 36.6145C259.663 36.6081 259.505 36.6022 259.342 36.596C259.26 36.593 259.183 36.5901 259.103 36.587C259.063 36.5855 259.025 36.5841 258.985 36.5826C258.965 36.5819 258.947 36.5812 258.927 36.5804C258.884 36.5788 258.911 36.5798 258.869 36.5782C258.818 36.5763 258.688 36.5714 258.638 36.5695C258.561 36.5666 258.489 36.5639 258.413 36.561C258.261 36.5553 258.12 36.55 257.974 36.5445C257.898 36.5416 257.835 36.5393 257.761 36.5365C257.725 36.5351 257.692 36.5338 257.656 36.5325C257.638 36.5318 257.622 36.5312 257.604 36.5306C257.577 36.5295 257.579 36.5296 257.552 36.5286C257.496 36.5265 257.403 36.523 257.348 36.5209C257.279 36.5183 257.215 36.5159 257.148 36.5134C257.014 36.5083 256.89 36.5036 256.761 36.4988C256.697 36.4963 256.637 36.4941 256.574 36.4917C256.543 36.4905 256.513 36.4894 256.482 36.4883C256.474 36.488 256.467 36.4877 256.459 36.4874C256.452 36.4871 256.444 36.4868 256.436 36.4865C256.415 36.4857 256.412 36.4856 256.391 36.4848C256.342 36.483 256.261 36.4799 256.213 36.4781C256.153 36.4758 256.097 36.4737 256.038 36.4715C255.917 36.467 255.818 36.4632 255.703 36.4589C255.647 36.4568 255.596 36.4548 255.542 36.4528C255.515 36.4518 255.489 36.4508 255.463 36.4498C255.396 36.4473 255.451 36.4494 255.385 36.4469C255.334 36.445 255.281 36.443 255.232 36.4411C255.181 36.4392 255.133 36.4374 255.084 36.4355C254.984 36.4318 254.893 36.4284 254.8 36.4248C254.613 36.4178 254.447 36.4116 254.284 36.4054C254.202 36.4023 254.127 36.3995 254.051 36.3966C254.012 36.3951 253.98 36.3939 253.942 36.3925C253.923 36.3918 253.906 36.3912 253.888 36.3905C253.858 36.3894 253.866 36.3896 253.836 36.3885C253.779 36.3864 253.69 36.383 253.638 36.3811C253.572 36.3786 253.519 36.3765 253.458 36.3743C253.337 36.3697 253.246 36.3663 253.148 36.3626C252.953 36.3552 252.839 36.3509 252.735 36.347C252.678 36.3449 252.666 36.3444 252.632 36.3431C252.618 36.3426 252.614 36.3425 252.606 36.3422C252.603 36.342 252.601 36.342 252.6 36.3419C252.599 36.3419 252.598 36.3419 252.598 36.3419C252.598 36.3418 252.598 36.3418 252.598 36.3418C252.598 36.3418 252.598 36.3418 252.598 36.3418C252.598 36.3418 252.598 36.3418 252.575 36.9414ZM260.83 37.0427C259.465 40.3192 257.519 44.8468 254.994 50.627L256.094 51.1074C258.62 45.325 260.568 40.7901 261.937 37.5042L260.83 37.0427ZM254.994 50.6268C252.449 56.4478 251.002 59.6895 250.636 60.396L251.702 60.9478C252.091 60.1959 253.56 56.9012 256.093 51.1075L254.994 50.6268ZM250.635 60.3977C249.68 62.2559 248.585 63.8356 247.353 65.1432L248.227 65.9662C249.546 64.5655 250.704 62.8899 251.702 60.946L250.635 60.3977ZM247.352 65.1442C244.727 67.9424 241.103 69.3688 236.403 69.3688V70.5687C241.364 70.5687 245.331 69.0524 248.227 65.9652L247.352 65.1442ZM236.914 69.6534L233.535 64.1846L232.514 64.8154L235.893 70.2841L236.914 69.6534ZM233.024 65.1C233.925 65.1 235.173 64.7633 236.719 64.1606L236.283 63.0425C234.756 63.6378 233.686 63.9 233.024 63.9V65.1ZM236.722 64.1593C238.226 63.5628 239.449 62.9321 240.37 62.2602C241.288 61.5909 241.947 60.851 242.258 60.0232L241.134 59.6018C240.937 60.1282 240.477 60.6968 239.663 61.2906C238.852 61.8817 237.731 62.4685 236.28 63.0438L236.722 64.1593Z" fill="black"/>
<path d="M21.751 60.4316C23.2095 60.4316 25.11 60.2106 25.7288 59.6803L26.0824 59.3709L25.9498 58.9289C25.7288 58.3101 24.9774 58.0008 24.0051 57.6472C23.1653 57.3378 22.635 57.1168 22.635 56.719V50.6641L21.7952 50.885C21.3091 51.0176 20.8671 51.106 20.3809 51.1502L19.8064 51.2386V56.1887C19.8064 56.9842 19.4086 57.2936 18.7898 57.6914L18.4805 57.8682V59.1499L18.7457 59.3267C18.9666 59.5035 19.3644 59.6361 19.8506 59.8128C20.16 59.9454 20.6019 60.078 20.9113 60.2548L21.0439 60.3432H21.1765C21.4417 60.4316 21.5743 60.4316 21.751 60.4316Z" fill="#FF9900"/>
<path d="M17.6855 62.6828C19.4534 62.6828 21.0887 62.3735 21.6632 61.9315L22.0168 61.6221L21.8842 61.1802C21.6632 60.5614 20.9119 60.252 19.9395 59.8984C19.0998 59.5891 18.5694 59.3681 18.5694 59.0145V51.4126H17.7297C17.6413 51.4126 17.5529 51.4126 17.4645 51.4126C17.1551 51.4126 16.8015 51.4126 16.4922 51.3684L15.785 51.3242V58.3957C15.785 59.2355 15.2988 59.5449 14.7685 59.8984C14.2823 60.2078 13.7962 60.5614 13.752 61.3569V61.6221L13.9729 61.8431C14.3707 62.2851 15.6082 62.5503 17.1551 62.5945C17.2877 62.6828 17.5087 62.6828 17.6855 62.6828Z" fill="#FF9900"/>
<path d="M29.752 13.936C29.7962 15.0852 30.4591 16.0575 31.6524 16.8088C32.8457 17.5602 34.26 17.958 35.8511 17.958C37.177 17.958 38.5472 17.737 39.9615 17.2508C39.9615 17.2508 43.6298 15.9691 44.2044 14.7316L44.2928 14.5548V14.378C44.1602 12.3449 40.1824 9.29536 36.4257 8.32302C36.1605 8.27883 35.8953 8.23463 35.6302 8.23463C30.3265 8.19043 29.752 13.936 29.752 13.936Z" fill="#FF9900"/>
<path d="M6.63646 48.2759C10.0396 50.3532 13.7522 51.4139 17.4205 51.4139C22.2822 51.4139 26.9671 49.4693 29.9283 46.2429C34.8341 40.8508 34.8341 35.4146 33.243 28.4315C33.0663 27.5918 32.8895 26.8404 32.7127 26.1333L32.6243 25.8239C31.652 21.7136 31.1216 19.5037 31.9171 17.6916L32.1381 17.2055L31.6962 16.8519L31.6078 16.8077C30.0167 15.7912 29.3979 14.3327 29.8841 12.6974C29.8841 12.6532 29.9283 12.609 29.9283 12.609V12.5648L29.9725 12.4764C30.8122 10.1781 33.3756 8.23347 35.5855 8.23347H35.7181L36.4252 8.27766V7.57051C36.4252 6.2446 35.9833 1.9133 30.4144 0.896766C29.6189 0.764175 28.8233 0.675781 28.072 0.675781C25.9063 0.675781 24.0501 1.29454 22.6358 2.53206C20.6027 4.25574 19.5862 7.08435 19.6746 10.5317C19.7188 12.5206 20.0281 15.0398 20.3375 17.6916C21.0447 23.7466 21.796 30.553 19.9398 32.4534C19.1884 33.249 15.0781 37.0941 9.19989 37.0941C8.53693 37.0941 7.82978 37.0499 7.16682 36.9173C4.6476 36.5195 2.87972 35.6798 1.90738 34.3539L0.890852 32.9838L0.714064 34.6633C0.360489 38.1548 0.581474 44.6076 6.63646 48.2759Z" fill="white"/>
<path d="M6.28343 48.8501C9.20043 50.618 12.2058 51.5903 15.0786 51.9439V58.4409C15.0786 58.8828 14.8576 59.0596 14.3715 59.4132C13.7969 59.7668 13.0456 60.2971 13.0456 61.4905C13.0456 61.9766 13.355 62.6396 14.7693 63.0374C15.5206 63.2583 16.5371 63.3467 17.6421 63.3467C18.7912 63.3467 22.5921 63.2141 22.5921 61.4905C22.5921 61.3579 22.5921 61.2253 22.5479 61.0927C23.9622 61.0043 25.5975 60.7833 26.3047 60.1204C26.614 59.811 26.7024 59.5016 26.7024 59.2806C26.7024 57.9989 25.2881 57.4685 24.2716 57.0708C23.9622 56.9382 23.5203 56.8056 23.3435 56.673V51.1926C26.2163 50.2644 28.6913 48.6733 30.4592 46.7287C35.5418 41.1599 35.5418 35.3258 33.9508 28.2985C33.7298 27.3262 33.5088 26.4864 33.332 25.6909C32.3597 21.669 31.8735 19.6359 32.5806 18.0006C33.5972 18.3984 34.7021 18.6194 35.8954 18.6194C40.0057 18.6194 45 16.056 45 14.4649C45 11.9898 40.8455 8.94024 37.1329 7.83532C37.1771 6.15583 36.691 1.38256 30.5918 0.233434C27.2328 -0.385324 24.36 0.233434 22.2385 2.00131C20.0729 3.85759 18.9238 6.86298 19.0564 10.4871C19.1006 12.5202 19.4099 15.0394 19.7193 17.6912C20.3381 23.3043 21.1336 30.2432 19.5425 31.9227C19.0122 32.453 14.0621 37.2705 7.34416 36.2098C1.81954 35.4142 1.86373 32.3205 1.86373 32.1879C1.86373 31.8343 1.64275 31.5691 1.28917 31.5249C0.979793 31.4807 0.626217 31.6575 0.537823 32.0111C0.537823 32.0995 -2.60016 43.4581 6.28343 48.8501ZM43.5857 14.3765C43.4531 14.5975 43.0995 14.9068 42.525 15.2604C41.3758 15.3046 33.332 15.5256 30.6802 12.3434C31.5199 10.4871 33.7298 8.85185 35.5418 8.85185C35.7628 8.85185 35.9838 8.89604 36.1606 8.94024C39.9173 9.86838 43.4973 12.7854 43.5857 14.3765ZM35.8512 17.2935C34.3485 17.2935 33.0668 16.9399 32.0061 16.2769C30.9896 15.614 30.4592 14.8626 30.415 13.9345C32.8016 15.9234 36.9119 16.4979 39.7406 16.6305C38.5472 16.9841 37.2213 17.2935 35.8512 17.2935ZM25.3323 59.1922C24.9788 59.5016 23.3435 59.8552 21.3104 59.811C20.9126 59.59 20.5149 59.4574 20.1613 59.3248C19.8519 59.1922 19.4099 59.0596 19.2332 58.927V58.3525C19.8077 57.9989 20.5591 57.4685 20.5591 56.2752V51.8997C21.0452 51.8113 21.5314 51.7229 22.0176 51.5903V56.8056C22.0176 57.6453 22.9457 57.9989 23.8296 58.3525C24.36 58.4851 25.1997 58.8386 25.3323 59.1922ZM16.4045 58.4409V52.0323C16.7581 52.0323 17.0675 52.0765 17.4211 52.0765C17.5537 52.0765 17.7305 52.0765 17.863 52.0765V57.9547V58.9712C17.863 59.811 18.7912 60.1646 19.6751 60.5181C20.2497 60.7391 21.0894 61.0485 21.222 61.4021C20.8684 61.6673 19.3215 62.065 17.1117 61.9766C15.388 61.9324 14.5483 61.5789 14.3715 61.4021C14.3715 60.9601 14.5925 60.8275 15.0786 60.4739C15.6532 60.1646 16.4045 59.6342 16.4045 58.4409ZM1.42176 34.7071C2.26151 35.8562 3.8968 37.0495 7.07898 37.5357C14.3273 38.6406 19.4541 33.8232 20.4265 32.8508C22.5037 30.7294 21.7082 24.0556 21.001 17.5587C20.6917 14.9068 20.4265 12.4318 20.3381 10.4429C20.2497 7.21656 21.222 4.60894 23.0783 2.97365C24.8462 1.47095 27.3654 0.940586 30.3266 1.47095C35.2325 2.39909 35.7628 5.97904 35.807 7.48174C35.7628 7.48174 35.6744 7.48174 35.6302 7.48174C33.111 7.48174 30.3266 9.6032 29.3985 12.1224C29.3985 12.1666 29.3543 12.2108 29.3543 12.255C29.3543 12.2992 29.3101 12.3876 29.3101 12.4318C28.7355 14.3765 29.4869 16.1444 31.2989 17.2935C31.3431 17.2935 31.3431 17.3377 31.3873 17.3377C30.5034 19.3265 31.0337 21.669 32.0503 25.9119C32.2271 26.7074 32.4481 27.5472 32.669 28.5195C34.2159 35.3258 34.2159 40.5853 29.5311 45.7563C24.9788 50.7064 15.83 52.9604 7.07898 47.6568C1.24498 44.2094 1.02399 38.0661 1.42176 34.7071Z" fill="black"/>
<path d="M4.60323 41.3347C4.9568 41.2021 5.31038 41.3789 5.48717 41.6882C5.57556 41.865 7.52023 46.5499 13.4868 46.8151C24.0941 47.2571 26.083 38.1525 26.1714 37.7547C26.2598 37.4011 26.6133 37.1802 26.9669 37.2244C27.3205 37.3127 27.5415 37.6663 27.4973 38.0199C27.4973 38.1083 25.2874 48.1852 14.2824 48.1852C14.0172 48.1852 13.752 48.1852 13.4868 48.1852C6.59209 47.8758 4.33805 42.4396 4.24965 42.2186C4.11706 41.865 4.24965 41.4673 4.60323 41.3347Z" fill="black"/>
<path d="M27.0116 10.5741C28.3297 10.5741 29.3983 9.50552 29.3983 8.18742C29.3983 6.86932 28.3297 5.80078 27.0116 5.80078C25.6935 5.80078 24.625 6.86932 24.625 8.18742C24.625 9.50552 25.6935 10.5741 27.0116 10.5741Z" fill="black"/>
<path d="M27.6303 8.80751C28.2405 8.80751 28.7352 8.31281 28.7352 7.70258C28.7352 7.09235 28.2405 6.59766 27.6303 6.59766C27.0201 6.59766 26.5254 7.09235 26.5254 7.70258C26.5254 8.31281 27.0201 8.80751 27.6303 8.80751Z" fill="white"/>
</svg>
